<svg xmlns="http://www.w3.org/2000/svg" xmlns:xlink="http://www.w3.org/1999/xlink" width="500" zoomAndPan="magnify" viewBox="0 0 375 374.999991" height="500" preserveAspectRatio="xMidYMid meet" version="1.0"><defs><g/><clipPath id="eaf7de6ea9"><path d="M 228 83 L 346.804688 83 L 346.804688 161.195312 L 228 161.195312 Z M 228 83 " clip-rule="nonzero"/></clipPath><clipPath id="174628672e"><path d="M 250 73.699219 L 295 73.699219 L 295 124 L 250 124 Z M 250 73.699219 " clip-rule="nonzero"/></clipPath><clipPath id="31f57035a5"><path d="M 227.742188 156 L 254 156 L 254 161.195312 L 227.742188 161.195312 Z M 227.742188 156 " clip-rule="nonzero"/></clipPath></defs><g clip-path="url(#eaf7de6ea9)"><path fill="#17223a" d="M 239.695312 160.078125 C 240.5625 161.238281 242.207031 161.484375 243.375 160.621094 C 244.664062 159.660156 246.195312 159.152344 247.796875 159.152344 C 250.179688 159.152344 252.359375 160.25 253.777344 162.15625 C 256.222656 165.449219 255.53125 170.117188 252.238281 172.5625 C 251.074219 173.429688 250.828125 175.074219 251.695312 176.238281 L 261.902344 189.992188 C 262.417969 190.6875 263.210938 191.054688 264.015625 191.054688 C 264.558594 191.054688 265.109375 190.882812 265.578125 190.535156 L 345.023438 131.5625 C 346.1875 130.695312 346.433594 129.050781 345.566406 127.886719 L 335.359375 114.132812 C 334.941406 113.574219 334.320312 113.203125 333.632812 113.101562 C 332.945312 113 332.242188 113.171875 331.679688 113.589844 C 330.390625 114.546875 328.859375 115.054688 327.257812 115.054688 C 324.875 115.054688 322.695312 113.960938 321.277344 112.050781 C 320.09375 110.457031 319.601562 108.496094 319.890625 106.53125 C 320.183594 104.566406 321.21875 102.832031 322.816406 101.648438 C 323.375 101.230469 323.746094 100.609375 323.847656 99.921875 C 323.949219 99.230469 323.773438 98.53125 323.359375 97.96875 L 313.148438 84.21875 C 312.285156 83.054688 310.640625 82.808594 309.472656 83.675781 L 230.03125 142.648438 C 229.46875 143.0625 229.097656 143.683594 228.996094 144.375 C 228.894531 145.0625 229.070312 145.765625 229.488281 146.324219 Z M 290.921875 103.992188 L 291.707031 105.046875 C 292.09375 105.570312 292.6875 105.84375 293.289062 105.84375 C 293.695312 105.84375 294.109375 105.71875 294.460938 105.457031 C 295.335938 104.804688 295.519531 103.570312 294.871094 102.699219 L 294.085938 101.640625 L 310.496094 89.460938 L 317.734375 99.210938 C 316.113281 101.035156 315.054688 103.289062 314.691406 105.761719 C 314.195312 109.113281 315.035156 112.460938 317.058594 115.183594 C 319.441406 118.394531 323.253906 120.3125 327.257812 120.3125 C 329.105469 120.3125 330.894531 119.917969 332.542969 119.160156 L 339.777344 128.90625 L 323.367188 141.089844 L 322.585938 140.035156 C 321.9375 139.160156 320.703125 138.980469 319.828125 139.625 C 318.953125 140.273438 318.769531 141.511719 319.421875 142.382812 L 320.203125 143.4375 L 264.558594 184.746094 L 257.316406 174.996094 C 261.203125 170.597656 261.632812 163.921875 257.996094 159.023438 C 255.613281 155.8125 251.800781 153.898438 247.796875 153.898438 C 245.949219 153.898438 244.15625 154.292969 242.511719 155.050781 L 235.273438 145.300781 Z M 290.921875 103.992188 " fill-opacity="1" fill-rule="nonzero"/></g><path fill="#17223a" d="M 313.878906 134.917969 C 314.261719 135.4375 314.859375 135.710938 315.460938 135.710938 C 315.867188 135.710938 316.28125 135.585938 316.636719 135.324219 C 317.507812 134.675781 317.691406 133.441406 317.042969 132.566406 L 311.5 125.097656 C 310.851562 124.226562 309.617188 124.042969 308.742188 124.691406 C 307.867188 125.339844 307.683594 126.574219 308.335938 127.449219 Z M 313.878906 134.917969 " fill-opacity="1" fill-rule="nonzero"/><path fill="#17223a" d="M 302.792969 119.980469 C 303.175781 120.503906 303.773438 120.777344 304.375 120.777344 C 304.78125 120.777344 305.195312 120.652344 305.550781 120.390625 C 306.421875 119.742188 306.605469 118.503906 305.957031 117.632812 L 300.414062 110.164062 C 299.765625 109.289062 298.53125 109.109375 297.65625 109.757812 C 296.78125 110.40625 296.597656 111.640625 297.25 112.515625 Z M 302.792969 119.980469 " fill-opacity="1" fill-rule="nonzero"/><g clip-path="url(#174628672e)"><path fill="#17223a" d="M 251.785156 123.230469 C 252.171875 123.433594 252.589844 123.53125 252.996094 123.53125 C 253.945312 123.53125 254.863281 123.015625 255.332031 122.117188 L 266.039062 101.582031 L 266.921875 102.039062 C 267.210938 102.191406 267.523438 102.261719 267.832031 102.261719 C 268.542969 102.261719 269.226562 101.875 269.578125 101.203125 C 270.082031 100.238281 269.707031 99.046875 268.742188 98.542969 L 267.863281 98.085938 L 277.3125 79.964844 L 288.078125 85.578125 C 287.414062 87.949219 287.453125 90.460938 288.21875 92.863281 C 288.664062 94.242188 290.140625 95.003906 291.523438 94.5625 C 292.90625 94.121094 293.667969 92.640625 293.226562 91.257812 C 292.617188 89.351562 292.789062 87.328125 293.714844 85.554688 C 294.386719 84.265625 293.886719 82.679688 292.601562 82.007812 L 277.414062 74.089844 C 276.796875 73.765625 276.070312 73.699219 275.410156 73.910156 C 274.746094 74.121094 274.191406 74.585938 273.867188 75.203125 L 250.667969 119.6875 C 250 120.972656 250.496094 122.5625 251.785156 123.230469 Z M 251.785156 123.230469 " fill-opacity="1" fill-rule="nonzero"/></g><g clip-path="url(#31f57035a5)"><path fill="#17223a" d="M 229.234375 166.476562 L 244.417969 174.394531 C 244.796875 174.59375 245.214844 174.691406 245.632812 174.691406 C 245.898438 174.691406 246.164062 174.652344 246.421875 174.570312 C 247.089844 174.363281 247.640625 173.898438 247.964844 173.277344 C 248.796875 171.679688 250.183594 170.4375 251.863281 169.789062 C 253.21875 169.261719 253.886719 167.738281 253.363281 166.386719 C 252.839844 165.03125 251.3125 164.363281 249.960938 164.886719 C 247.921875 165.679688 246.136719 166.980469 244.761719 168.644531 L 233.992188 163.03125 L 235.507812 160.128906 C 236.179688 158.839844 235.679688 157.253906 234.390625 156.582031 C 233.101562 155.914062 231.515625 156.414062 230.847656 157.699219 L 228.117188 162.929688 C 227.796875 163.546875 227.730469 164.269531 227.941406 164.933594 C 228.148438 165.597656 228.613281 166.152344 229.234375 166.476562 Z M 229.234375 166.476562 " fill-opacity="1" fill-rule="nonzero"/></g><path fill="#17223a" d="M 274.710938 101.65625 C 273.746094 101.15625 272.558594 101.53125 272.054688 102.496094 C 271.550781 103.460938 271.925781 104.652344 272.894531 105.152344 L 274.359375 105.917969 C 274.652344 106.070312 274.964844 106.144531 275.273438 106.144531 C 275.984375 106.144531 276.667969 105.757812 277.019531 105.085938 C 277.523438 104.121094 277.152344 102.929688 276.1875 102.425781 Z M 274.710938 101.65625 " fill-opacity="1" fill-rule="nonzero"/><g fill="#17223a" fill-opacity="1"><g transform="translate(80.514855, 218.397669)"><g><path d="M 49.171875 -47.328125 C 51.929688 -48.753906 54.640625 -50.3125 57.296875 -52 C 59.960938 -53.695312 62.578125 -55.519531 65.140625 -57.46875 C 67.398438 -59.3125 69.910156 -61.585938 72.671875 -64.296875 C 75.429688 -67.015625 78.09375 -69.910156 80.65625 -72.984375 C 83.21875 -76.054688 85.21875 -79.023438 86.65625 -81.890625 C 87.570312 -83.328125 88.390625 -84.96875 89.109375 -86.8125 C 89.828125 -88.65625 90.238281 -90.546875 90.34375 -92.484375 C 90.34375 -93.203125 90.265625 -93.945312 90.109375 -94.71875 C 89.953125 -95.488281 89.671875 -96.023438 89.265625 -96.328125 C 88.753906 -96.742188 87.882812 -96.953125 86.65625 -96.953125 C 85.625 -96.953125 84.597656 -96.847656 83.578125 -96.640625 C 82.554688 -96.429688 81.738281 -96.273438 81.125 -96.171875 C 79.582031 -95.972656 77.914062 -95.613281 76.125 -95.09375 C 74.332031 -94.582031 72.722656 -94.070312 71.296875 -93.5625 C 69.859375 -93.050781 68.0625 -92.304688 65.90625 -91.328125 C 63.757812 -90.359375 62.125 -89.363281 61 -88.34375 C 58.539062 -84.65625 56.644531 -81.65625 55.3125 -79.34375 C 53.976562 -77.039062 52.75 -74.96875 51.625 -73.125 C 50.5 -71.289062 48.960938 -69.039062 47.015625 -66.375 C 44.347656 -62.6875 41.628906 -58.640625 38.859375 -54.234375 C 36.097656 -49.828125 33.695312 -45.679688 31.65625 -41.796875 C 35.539062 -42.097656 38.710938 -42.734375 41.171875 -43.703125 C 43.628906 -44.679688 46.296875 -45.890625 49.171875 -47.328125 Z M 38.875 -24.578125 C 38.050781 -24.472656 37.304688 -24.421875 36.640625 -24.421875 C 35.972656 -24.421875 35.28125 -24.421875 34.5625 -24.421875 C 33.644531 -24.421875 32.695312 -24.472656 31.71875 -24.578125 C 30.75 -24.679688 29.546875 -24.890625 28.109375 -25.203125 C 27.492188 -25.296875 26.800781 -25.492188 26.03125 -25.796875 C 25.269531 -26.109375 24.6875 -26.265625 24.28125 -26.265625 L 24.125 -26.265625 C 23.613281 -26.171875 23.097656 -25.632812 22.578125 -24.65625 C 22.066406 -23.6875 21.710938 -22.945312 21.515625 -22.4375 L 21.515625 -22.28125 C 19.671875 -18.382812 17.617188 -14.335938 15.359375 -10.140625 C 13.109375 -5.941406 11.265625 -1.742188 9.828125 2.453125 C 9.421875 3.171875 9.085938 3.960938 8.828125 4.828125 C 8.578125 5.703125 8.347656 6.550781 8.140625 7.375 L 7.6875 8.140625 C 7.070312 9.367188 6.53125 10.441406 6.0625 11.359375 C 5.601562 12.285156 4.8125 13.160156 3.6875 13.984375 C 3.28125 14.285156 2.816406 14.640625 2.296875 15.046875 C 1.785156 15.460938 1.378906 15.722656 1.078125 15.828125 L 0.609375 15.828125 C -0.203125 15.828125 -0.96875 15.570312 -1.6875 15.0625 C -2.300781 14.75 -3.222656 14.285156 -4.453125 13.671875 C -5.679688 13.054688 -6.550781 12.492188 -7.0625 11.984375 C -7.78125 10.960938 -8.421875 9.835938 -8.984375 8.609375 C -9.546875 7.378906 -9.828125 5.992188 -9.828125 4.453125 C -9.628906 1.785156 -9.039062 -0.820312 -8.0625 -3.375 C -7.09375 -5.9375 -6.25 -8.296875 -5.53125 -10.453125 C -4.40625 -12.910156 -3.226562 -15.46875 -2 -18.125 C -0.769531 -20.789062 0.351562 -23.148438 1.375 -25.203125 C 3.53125 -29.398438 5.679688 -33.570312 7.828125 -37.71875 C 9.984375 -41.863281 12.238281 -45.988281 14.59375 -50.09375 L 15.359375 -51.625 C 17.515625 -55.519531 19.742188 -59.460938 22.046875 -63.453125 C 24.347656 -67.453125 27.140625 -72.210938 30.421875 -77.734375 C 32.160156 -80.609375 34.050781 -83.8125 36.09375 -87.34375 C 38.144531 -90.875 39.941406 -94.226562 41.484375 -97.40625 C 41.992188 -98.53125 42.65625 -99.734375 43.46875 -101.015625 C 44.289062 -102.296875 44.703125 -103.445312 44.703125 -104.46875 C 44.609375 -104.988281 44.507812 -105.347656 44.40625 -105.546875 C 44.300781 -105.753906 44.25 -106.0625 44.25 -106.46875 L 44.25 -106.9375 C 44.65625 -107.132812 45.035156 -107.234375 45.390625 -107.234375 C 45.753906 -107.234375 46.140625 -107.234375 46.546875 -107.234375 C 47.878906 -107.234375 49.238281 -107.054688 50.625 -106.703125 C 52.007812 -106.347656 53.210938 -106.171875 54.234375 -106.171875 L 54.546875 -106.171875 C 55.359375 -106.171875 56.378906 -106.320312 57.609375 -106.625 C 58.835938 -106.9375 59.96875 -107.242188 61 -107.546875 C 61.101562 -107.546875 61.175781 -107.570312 61.21875 -107.625 C 61.269531 -107.675781 61.347656 -107.703125 61.453125 -107.703125 C 63.804688 -108.316406 65.597656 -108.828125 66.828125 -109.234375 C 68.054688 -109.648438 69.3125 -110.007812 70.59375 -110.3125 C 71.875 -110.625 73.691406 -110.828125 76.046875 -110.921875 L 77.734375 -110.921875 C 80.097656 -110.921875 82.046875 -110.691406 83.578125 -110.234375 C 85.117188 -109.773438 86.707031 -109.132812 88.34375 -108.3125 C 91.625 -106.675781 94.617188 -104.679688 97.328125 -102.328125 C 100.046875 -99.972656 101.765625 -96.742188 102.484375 -92.640625 C 102.992188 -90.390625 103.25 -88.140625 103.25 -85.890625 C 103.25 -83.628906 102.941406 -81.171875 102.328125 -78.515625 C 101.296875 -74.828125 99.703125 -71.0625 97.546875 -67.21875 C 95.398438 -63.375 93.40625 -60.125 91.5625 -57.46875 C 89.519531 -54.800781 87.394531 -52.238281 85.1875 -49.78125 C 82.988281 -47.320312 80.609375 -45.015625 78.046875 -42.859375 C 75.484375 -40.710938 72.460938 -38.585938 68.984375 -36.484375 C 65.503906 -34.390625 61.867188 -32.46875 58.078125 -30.71875 C 54.285156 -28.976562 50.695312 -27.570312 47.3125 -26.5 C 43.9375 -25.425781 41.125 -24.785156 38.875 -24.578125 Z M 38.875 -24.578125 "/></g></g></g><g fill="#17223a" fill-opacity="1"><g transform="translate(151.488657, 218.397669)"><g><path d="M 35.34375 -21.203125 C 32.78125 -18.429688 30.164062 -15.304688 27.5 -11.828125 C 24.832031 -8.347656 22.171875 -5.171875 19.515625 -2.296875 C 18.390625 -1.484375 17.414062 -0.382812 16.59375 1 C 15.769531 2.382812 14.488281 3.175781 12.75 3.375 L 12.4375 3.375 C 11.414062 3.375 10.597656 3.117188 9.984375 2.609375 C 9.367188 2.097656 8.703125 1.738281 7.984375 1.53125 L 6.765625 1.53125 C 4.921875 1.019531 3.40625 0.125 2.21875 -1.15625 C 1.039062 -2.4375 0.046875 -3.738281 -0.765625 -5.0625 C -1.273438 -5.988281 -1.785156 -7.066406 -2.296875 -8.296875 C -2.816406 -9.523438 -3.125 -10.859375 -3.21875 -12.296875 L -3.21875 -12.75 C -3.21875 -15.820312 -2.679688 -18.585938 -1.609375 -21.046875 C -0.535156 -23.503906 0.5625 -25.757812 1.6875 -27.8125 L 2 -28.421875 C 5.582031 -35.078125 9.90625 -41.425781 14.96875 -47.46875 C 20.039062 -53.519531 25.550781 -58.539062 31.5 -62.53125 C 31.800781 -63.550781 32.363281 -64.269531 33.1875 -64.6875 C 34.3125 -64.6875 35.359375 -64.582031 36.328125 -64.375 C 37.304688 -64.164062 38.304688 -63.960938 39.328125 -63.765625 C 40.453125 -63.554688 41.523438 -63.269531 42.546875 -62.90625 C 43.578125 -62.550781 44.601562 -62.273438 45.625 -62.078125 L 50.546875 -61.296875 C 51.671875 -61.097656 52.742188 -60.789062 53.765625 -60.375 C 54.796875 -59.96875 55.820312 -59.613281 56.84375 -59.3125 C 59 -58.59375 60.613281 -57.691406 61.6875 -56.609375 C 62.757812 -55.535156 63.347656 -53.769531 63.453125 -51.3125 L 63.453125 -50.234375 C 63.453125 -48.296875 62.6875 -46.914062 61.15625 -46.09375 C 60.738281 -45.78125 60.222656 -45.570312 59.609375 -45.46875 C 58.992188 -45.375 58.378906 -45.328125 57.765625 -45.328125 C 56.128906 -45.328125 54.695312 -45.6875 53.46875 -46.40625 C 53.15625 -46.707031 52.84375 -47.085938 52.53125 -47.546875 C 52.226562 -48.015625 51.875 -48.296875 51.46875 -48.390625 L 51.015625 -48.390625 C 50.191406 -48.390625 49.085938 -48.160156 47.703125 -47.703125 C 46.316406 -47.242188 45.269531 -46.8125 44.5625 -46.40625 C 43.632812 -45.789062 42.785156 -45.175781 42.015625 -44.5625 C 41.253906 -43.945312 40.515625 -43.378906 39.796875 -42.859375 C 35.285156 -39.078125 30.597656 -34.492188 25.734375 -29.109375 C 20.867188 -23.734375 16.742188 -17.769531 13.359375 -11.21875 C 14.691406 -11.726562 15.867188 -12.46875 16.890625 -13.4375 C 17.921875 -14.414062 18.945312 -15.363281 19.96875 -16.28125 C 22.9375 -19.050781 26.46875 -22.429688 30.5625 -26.421875 C 34.664062 -30.421875 38.359375 -34.160156 41.640625 -37.640625 L 41.640625 -37.796875 C 41.640625 -38.515625 41.921875 -39.207031 42.484375 -39.875 C 43.046875 -40.539062 43.632812 -40.921875 44.25 -41.015625 L 44.5625 -41.015625 C 45.375 -41.015625 46.210938 -40.8125 47.078125 -40.40625 C 47.953125 -40 48.648438 -39.691406 49.171875 -39.484375 L 49.78125 -39.484375 C 50.1875 -39.484375 50.597656 -39.332031 51.015625 -39.03125 C 52.753906 -38.925781 54.414062 -38.382812 56 -37.40625 C 57.59375 -36.4375 58.390625 -35.132812 58.390625 -33.5 C 58.390625 -33.082031 58.285156 -32.566406 58.078125 -31.953125 C 57.867188 -31.335938 57.484375 -30.828125 56.921875 -30.421875 C 56.359375 -30.015625 55.925781 -29.550781 55.625 -29.03125 C 54.488281 -27.707031 53.304688 -25.890625 52.078125 -23.578125 C 50.847656 -21.273438 50.132812 -19.5625 49.9375 -18.4375 C 50.132812 -17.925781 50.539062 -17.671875 51.15625 -17.671875 C 51.570312 -17.671875 51.878906 -17.722656 52.078125 -17.828125 C 54.335938 -18.640625 56.441406 -19.765625 58.390625 -21.203125 C 58.898438 -21.609375 59.332031 -22.039062 59.6875 -22.5 C 60.050781 -22.96875 60.539062 -23.253906 61.15625 -23.359375 C 60.945312 -22.640625 60.710938 -22.046875 60.453125 -21.578125 C 60.203125 -21.117188 60.023438 -20.53125 59.921875 -19.8125 C 59.921875 -19.40625 59.992188 -19.019531 60.140625 -18.65625 C 60.296875 -18.300781 60.375 -17.972656 60.375 -17.671875 C 60.28125 -17.054688 59.925781 -16.285156 59.3125 -15.359375 C 58.789062 -14.640625 58.328125 -13.816406 57.921875 -12.890625 C 57.515625 -11.972656 57.054688 -11.160156 56.546875 -10.453125 C 55.722656 -9.628906 54.769531 -8.753906 53.6875 -7.828125 C 52.613281 -6.910156 51.515625 -6.039062 50.390625 -5.21875 C 49.878906 -4.8125 49.34375 -4.425781 48.78125 -4.0625 C 48.21875 -3.707031 47.578125 -3.328125 46.859375 -2.921875 C 45.523438 -1.992188 44.347656 -1.53125 43.328125 -1.53125 C 42.921875 -1.53125 42.585938 -1.503906 42.328125 -1.453125 C 42.066406 -1.398438 41.835938 -1.375 41.640625 -1.375 L 41.328125 -1.375 C 40.609375 -1.375 40.019531 -1.503906 39.5625 -1.765625 C 39.101562 -2.023438 38.71875 -2.203125 38.40625 -2.296875 C 37.175781 -3.117188 36.253906 -3.9375 35.640625 -4.75 C 35.023438 -5.570312 34.617188 -7.007812 34.421875 -9.0625 C 34.421875 -10.800781 34.46875 -12.769531 34.5625 -14.96875 C 34.664062 -17.175781 34.925781 -19.253906 35.34375 -21.203125 Z M 35.34375 -21.203125 "/></g></g></g><g fill="#17223a" fill-opacity="1"><g transform="translate(210.326137, 218.397669)"><g><path d="M 30.734375 -32.421875 C 30.828125 -32.828125 31.050781 -33.15625 31.40625 -33.40625 C 31.769531 -33.664062 32.109375 -33.953125 32.421875 -34.265625 C 34.460938 -36.304688 36.25 -38.660156 37.78125 -41.328125 C 39.320312 -43.992188 40.757812 -46.757812 42.09375 -49.625 C 41.375 -49.625 40.757812 -49.441406 40.25 -49.078125 C 39.738281 -48.722656 39.226562 -48.394531 38.71875 -48.09375 C 35.332031 -45.9375 31.796875 -43.242188 28.109375 -40.015625 C 24.421875 -36.796875 21.609375 -33.441406 19.671875 -29.953125 C 20.992188 -28.929688 22.140625 -28.085938 23.109375 -27.421875 C 24.085938 -26.753906 25.398438 -25.859375 27.046875 -24.734375 C 28.679688 -23.710938 30.0625 -22.660156 31.1875 -21.578125 C 32.3125 -20.503906 33.179688 -19.148438 33.796875 -17.515625 C 34.304688 -16.285156 34.664062 -14.953125 34.875 -13.515625 C 34.976562 -13.109375 35.03125 -12.597656 35.03125 -11.984375 C 35.03125 -10.859375 34.773438 -9.859375 34.265625 -8.984375 C 33.753906 -8.117188 33.34375 -7.171875 33.03125 -6.140625 C 31.90625 -4.609375 30.367188 -3.175781 28.421875 -1.84375 C 26.472656 -0.507812 24.320312 0.664062 21.96875 1.6875 C 19.71875 2.613281 17.617188 3.585938 15.671875 4.609375 C 13.722656 5.628906 11.722656 6.394531 9.671875 6.90625 C 9.265625 7.007812 8.832031 7.085938 8.375 7.140625 C 7.914062 7.191406 7.425781 7.269531 6.90625 7.375 L 4.453125 8.140625 C 4.046875 8.242188 3.660156 8.296875 3.296875 8.296875 C 2.941406 8.296875 2.5625 8.296875 2.15625 8.296875 C 1.4375 8.398438 0.488281 8.476562 -0.6875 8.53125 C -1.863281 8.582031 -2.863281 8.609375 -3.6875 8.609375 C -3.789062 8.609375 -3.96875 8.609375 -4.21875 8.609375 C -4.476562 8.609375 -4.710938 8.554688 -4.921875 8.453125 C -5.117188 8.347656 -5.269531 8.242188 -5.375 8.140625 C -5.476562 8.035156 -5.632812 7.929688 -5.84375 7.828125 C -6.550781 7.523438 -7.238281 7.269531 -7.90625 7.0625 C -8.570312 6.863281 -9.113281 6.554688 -9.53125 6.140625 C -9.832031 5.628906 -10.160156 5.144531 -10.515625 4.6875 C -10.878906 4.226562 -11.210938 3.789062 -11.515625 3.375 C -11.617188 2.5625 -11.796875 1.742188 -12.046875 0.921875 C -12.304688 0.0976562 -12.4375 -0.71875 -12.4375 -1.53125 C -12.34375 -2.039062 -12.191406 -2.550781 -11.984375 -3.0625 C -11.773438 -3.582031 -11.671875 -4.097656 -11.671875 -4.609375 C -11.367188 -4.398438 -11.113281 -4.113281 -10.90625 -3.75 C -10.695312 -3.394531 -10.390625 -3.117188 -9.984375 -2.921875 C -9.578125 -2.710938 -9.015625 -2.609375 -8.296875 -2.609375 C -7.679688 -2.609375 -7.09375 -2.707031 -6.53125 -2.90625 C -5.96875 -3.113281 -5.328125 -3.320312 -4.609375 -3.53125 C -4.503906 -3.53125 -4.425781 -3.554688 -4.375 -3.609375 C -4.320312 -3.660156 -4.242188 -3.6875 -4.140625 -3.6875 C -2.203125 -4.300781 -0.285156 -5.039062 1.609375 -5.90625 C 3.503906 -6.78125 5.269531 -7.578125 6.90625 -8.296875 C 9.46875 -9.421875 11.847656 -10.625 14.046875 -11.90625 C 16.253906 -13.1875 18.226562 -14.75 19.96875 -16.59375 C 17.40625 -17.925781 14.738281 -19.304688 11.96875 -20.734375 C 9.207031 -22.171875 7.210938 -24.117188 5.984375 -26.578125 C 4.753906 -29.347656 4.140625 -32.421875 4.140625 -35.796875 L 4.140625 -36.71875 C 4.453125 -40.613281 5.679688 -43.890625 7.828125 -46.546875 C 9.984375 -49.210938 12.238281 -51.671875 14.59375 -53.921875 L 18.125 -57.3125 C 19.351562 -58.4375 20.660156 -59.507812 22.046875 -60.53125 C 23.429688 -61.5625 24.789062 -62.535156 26.125 -63.453125 C 26.832031 -63.960938 27.546875 -64.421875 28.265625 -64.828125 C 28.984375 -65.242188 29.648438 -65.707031 30.265625 -66.21875 C 30.578125 -66.425781 30.859375 -66.734375 31.109375 -67.140625 C 31.367188 -67.546875 31.648438 -67.800781 31.953125 -67.90625 C 32.265625 -68.113281 32.597656 -68.21875 32.953125 -68.21875 C 33.316406 -68.21875 33.648438 -68.21875 33.953125 -68.21875 L 35.1875 -68.21875 C 36.613281 -67.8125 38.609375 -67.144531 41.171875 -66.21875 C 43.734375 -65.300781 45.578125 -64.429688 46.703125 -63.609375 C 47.316406 -63.203125 47.984375 -62.816406 48.703125 -62.453125 C 49.421875 -62.097656 50.035156 -61.664062 50.546875 -61.15625 C 50.753906 -60.945312 50.929688 -60.710938 51.078125 -60.453125 C 51.234375 -60.203125 51.414062 -59.972656 51.625 -59.765625 C 51.832031 -59.460938 52.191406 -59.179688 52.703125 -58.921875 C 53.210938 -58.660156 53.671875 -58.429688 54.078125 -58.234375 C 55.003906 -57.816406 55.773438 -57.476562 56.390625 -57.21875 C 57.003906 -56.96875 57.363281 -56.28125 57.46875 -55.15625 L 57.46875 -54.390625 C 57.46875 -52.546875 57.03125 -50.800781 56.15625 -49.15625 C 55.28125 -47.519531 54.382812 -46.140625 53.46875 -45.015625 C 53.15625 -44.710938 52.867188 -44.378906 52.609375 -44.015625 C 52.359375 -43.660156 52.132812 -43.378906 51.9375 -43.171875 C 51.832031 -42.960938 51.597656 -42.753906 51.234375 -42.546875 C 50.878906 -42.347656 50.597656 -42.144531 50.390625 -41.9375 C 49.054688 -40.507812 47.46875 -39.28125 45.625 -38.25 C 43.78125 -37.226562 41.988281 -36.207031 40.25 -35.1875 L 35.484375 -33.640625 C 34.671875 -33.441406 33.878906 -33.1875 33.109375 -32.875 C 32.335938 -32.570312 31.546875 -32.421875 30.734375 -32.421875 Z M 30.734375 -32.421875 "/></g></g></g><g fill="#17223a" fill-opacity="1"><g transform="translate(252.111319, 218.397669)"><g><path d="M 30.734375 -32.421875 C 30.828125 -32.828125 31.050781 -33.15625 31.40625 -33.40625 C 31.769531 -33.664062 32.109375 -33.953125 32.421875 -34.265625 C 34.460938 -36.304688 36.25 -38.660156 37.78125 -41.328125 C 39.320312 -43.992188 40.757812 -46.757812 42.09375 -49.625 C 41.375 -49.625 40.757812 -49.441406 40.25 -49.078125 C 39.738281 -48.722656 39.226562 -48.394531 38.71875 -48.09375 C 35.332031 -45.9375 31.796875 -43.242188 28.109375 -40.015625 C 24.421875 -36.796875 21.609375 -33.441406 19.671875 -29.953125 C 20.992188 -28.929688 22.140625 -28.085938 23.109375 -27.421875 C 24.085938 -26.753906 25.398438 -25.859375 27.046875 -24.734375 C 28.679688 -23.710938 30.0625 -22.660156 31.1875 -21.578125 C 32.3125 -20.503906 33.179688 -19.148438 33.796875 -17.515625 C 34.304688 -16.285156 34.664062 -14.953125 34.875 -13.515625 C 34.976562 -13.109375 35.03125 -12.597656 35.03125 -11.984375 C 35.03125 -10.859375 34.773438 -9.859375 34.265625 -8.984375 C 33.753906 -8.117188 33.34375 -7.171875 33.03125 -6.140625 C 31.90625 -4.609375 30.367188 -3.175781 28.421875 -1.84375 C 26.472656 -0.507812 24.320312 0.664062 21.96875 1.6875 C 19.71875 2.613281 17.617188 3.585938 15.671875 4.609375 C 13.722656 5.628906 11.722656 6.394531 9.671875 6.90625 C 9.265625 7.007812 8.832031 7.085938 8.375 7.140625 C 7.914062 7.191406 7.425781 7.269531 6.90625 7.375 L 4.453125 8.140625 C 4.046875 8.242188 3.660156 8.296875 3.296875 8.296875 C 2.941406 8.296875 2.5625 8.296875 2.15625 8.296875 C 1.4375 8.398438 0.488281 8.476562 -0.6875 8.53125 C -1.863281 8.582031 -2.863281 8.609375 -3.6875 8.609375 C -3.789062 8.609375 -3.96875 8.609375 -4.21875 8.609375 C -4.476562 8.609375 -4.710938 8.554688 -4.921875 8.453125 C -5.117188 8.347656 -5.269531 8.242188 -5.375 8.140625 C -5.476562 8.035156 -5.632812 7.929688 -5.84375 7.828125 C -6.550781 7.523438 -7.238281 7.269531 -7.90625 7.0625 C -8.570312 6.863281 -9.113281 6.554688 -9.53125 6.140625 C -9.832031 5.628906 -10.160156 5.144531 -10.515625 4.6875 C -10.878906 4.226562 -11.210938 3.789062 -11.515625 3.375 C -11.617188 2.5625 -11.796875 1.742188 -12.046875 0.921875 C -12.304688 0.0976562 -12.4375 -0.71875 -12.4375 -1.53125 C -12.34375 -2.039062 -12.191406 -2.550781 -11.984375 -3.0625 C -11.773438 -3.582031 -11.671875 -4.097656 -11.671875 -4.609375 C -11.367188 -4.398438 -11.113281 -4.113281 -10.90625 -3.75 C -10.695312 -3.394531 -10.390625 -3.117188 -9.984375 -2.921875 C -9.578125 -2.710938 -9.015625 -2.609375 -8.296875 -2.609375 C -7.679688 -2.609375 -7.09375 -2.707031 -6.53125 -2.90625 C -5.96875 -3.113281 -5.328125 -3.320312 -4.609375 -3.53125 C -4.503906 -3.53125 -4.425781 -3.554688 -4.375 -3.609375 C -4.320312 -3.660156 -4.242188 -3.6875 -4.140625 -3.6875 C -2.203125 -4.300781 -0.285156 -5.039062 1.609375 -5.90625 C 3.503906 -6.78125 5.269531 -7.578125 6.90625 -8.296875 C 9.46875 -9.421875 11.847656 -10.625 14.046875 -11.90625 C 16.253906 -13.1875 18.226562 -14.75 19.96875 -16.59375 C 17.40625 -17.925781 14.738281 -19.304688 11.96875 -20.734375 C 9.207031 -22.171875 7.210938 -24.117188 5.984375 -26.578125 C 4.753906 -29.347656 4.140625 -32.421875 4.140625 -35.796875 L 4.140625 -36.71875 C 4.453125 -40.613281 5.679688 -43.890625 7.828125 -46.546875 C 9.984375 -49.210938 12.238281 -51.671875 14.59375 -53.921875 L 18.125 -57.3125 C 19.351562 -58.4375 20.660156 -59.507812 22.046875 -60.53125 C 23.429688 -61.5625 24.789062 -62.535156 26.125 -63.453125 C 26.832031 -63.960938 27.546875 -64.421875 28.265625 -64.828125 C 28.984375 -65.242188 29.648438 -65.707031 30.265625 -66.21875 C 30.578125 -66.425781 30.859375 -66.734375 31.109375 -67.140625 C 31.367188 -67.546875 31.648438 -67.800781 31.953125 -67.90625 C 32.265625 -68.113281 32.597656 -68.21875 32.953125 -68.21875 C 33.316406 -68.21875 33.648438 -68.21875 33.953125 -68.21875 L 35.1875 -68.21875 C 36.613281 -67.8125 38.609375 -67.144531 41.171875 -66.21875 C 43.734375 -65.300781 45.578125 -64.429688 46.703125 -63.609375 C 47.316406 -63.203125 47.984375 -62.816406 48.703125 -62.453125 C 49.421875 -62.097656 50.035156 -61.664062 50.546875 -61.15625 C 50.753906 -60.945312 50.929688 -60.710938 51.078125 -60.453125 C 51.234375 -60.203125 51.414062 -59.972656 51.625 -59.765625 C 51.832031 -59.460938 52.191406 -59.179688 52.703125 -58.921875 C 53.210938 -58.660156 53.671875 -58.429688 54.078125 -58.234375 C 55.003906 -57.816406 55.773438 -57.476562 56.390625 -57.21875 C 57.003906 -56.96875 57.363281 -56.28125 57.46875 -55.15625 L 57.46875 -54.390625 C 57.46875 -52.546875 57.03125 -50.800781 56.15625 -49.15625 C 55.28125 -47.519531 54.382812 -46.140625 53.46875 -45.015625 C 53.15625 -44.710938 52.867188 -44.378906 52.609375 -44.015625 C 52.359375 -43.660156 52.132812 -43.378906 51.9375 -43.171875 C 51.832031 -42.960938 51.597656 -42.753906 51.234375 -42.546875 C 50.878906 -42.347656 50.597656 -42.144531 50.390625 -41.9375 C 49.054688 -40.507812 47.46875 -39.28125 45.625 -38.25 C 43.78125 -37.226562 41.988281 -36.207031 40.25 -35.1875 L 35.484375 -33.640625 C 34.671875 -33.441406 33.878906 -33.1875 33.109375 -32.875 C 32.335938 -32.570312 31.546875 -32.421875 30.734375 -32.421875 Z M 30.734375 -32.421875 "/></g></g></g><path stroke-linecap="butt" transform="matrix(1.154121, 0, 0, 1.154121, -41.306762, 60.634947)" fill="none" stroke-linejoin="miter" d="M 142.900022 86.958929 C 145.282787 85.723546 147.624937 84.379856 149.923087 82.927859 C 152.241545 81.452169 154.519387 79.871556 156.75323 78.179251 C 158.702765 76.574946 160.8723 74.601719 163.255065 72.262953 C 165.661522 69.897111 167.969826 67.395884 170.183361 64.74912 C 172.417204 62.082047 174.150124 59.502975 175.385506 57.008517 C 176.187659 55.752827 176.891658 54.331291 177.500887 52.750678 C 178.12704 51.146373 178.485809 49.498068 178.573809 47.805763 C 178.573809 47.199918 178.506117 46.560227 178.377501 45.886689 C 178.248886 45.216537 178.008579 44.749461 177.663349 44.488846 C 177.206426 44.119923 176.448274 43.937154 175.385506 43.937154 C 174.495354 43.937154 173.608586 44.035308 172.718434 44.228231 C 171.831666 44.40423 171.124283 44.532846 170.606437 44.620845 C 169.262747 44.793461 167.807365 45.108229 166.24706 45.561767 C 164.707063 45.994997 163.319373 46.441765 162.08399 46.895303 C 160.8283 47.328533 159.267995 47.968224 157.403075 48.814377 C 155.538155 49.660529 154.116619 50.526989 153.141851 51.417142 C 151.016316 54.60206 149.371396 57.204825 148.200321 59.222052 C 147.049553 61.215587 145.986786 63.016199 145.012018 64.620504 C 144.037251 66.201117 142.703714 68.154037 141.01141 70.472495 C 138.71326 73.660797 136.360956 77.160484 133.954498 80.978323 C 131.571733 84.792779 129.490198 88.390619 127.713278 91.771844 C 131.070811 91.514614 133.815729 90.959538 135.93788 90.113385 C 138.087107 89.270617 140.405564 88.218004 142.900022 86.958929 Z M 133.954498 106.701358 C 133.260653 106.785973 132.620962 106.829973 132.038809 106.829973 C 131.453272 106.829973 130.854196 106.829973 130.248351 106.829973 C 129.446198 106.829973 128.623738 106.785973 127.777585 106.701358 C 126.931433 106.613358 125.892358 106.427204 124.653591 106.146282 C 124.112053 106.061666 123.506208 105.885667 122.832671 105.625052 C 122.182826 105.367821 121.675134 105.235822 121.306212 105.235822 L 121.174212 105.235822 C 120.740982 105.323821 120.297598 105.787513 119.84406 106.633665 C 119.407446 107.479818 119.096061 108.119509 118.899754 108.552739 L 118.899754 108.684739 C 117.315757 112.065964 115.538837 115.579189 113.565609 119.221029 C 111.616074 122.862869 110.021923 126.504709 108.78654 130.146549 C 108.437925 130.752395 108.146849 131.436086 107.906542 132.194238 C 107.689927 132.952391 107.497004 133.690236 107.321004 134.407773 L 106.931774 135.057618 C 106.390236 136.120386 105.913006 137.051153 105.500084 137.853306 C 105.110854 138.655458 104.427163 139.413611 103.452395 140.131148 C 103.107165 140.388379 102.704396 140.692993 102.250859 141.041608 C 101.814244 141.410531 101.469014 141.6373 101.208399 141.721915 L 100.785323 141.721915 C 100.091478 141.721915 99.431479 141.495146 98.801941 141.041608 C 98.260404 140.780993 97.458251 140.378225 96.395484 139.836687 C 95.332716 139.315457 94.584718 138.828073 94.151487 138.374536 C 93.52195 137.508076 92.970259 136.529923 92.493029 135.446848 C 91.995491 134.384081 91.74503 133.192698 91.74503 131.869316 C 91.917645 129.550858 92.428721 127.28317 93.274874 125.073019 C 94.121026 122.839177 94.855486 120.791488 95.485024 118.926568 C 96.459791 116.801033 97.478559 114.590883 98.541326 112.292733 C 99.604094 109.974275 100.578861 107.923202 101.469014 106.146282 C 103.333934 102.504442 105.198854 98.896448 107.063774 95.318915 C 108.925309 91.71769 110.878229 88.143542 112.915764 84.586317 L 113.599455 83.252781 C 115.464375 79.871556 117.393603 76.456485 119.387138 73.010952 C 121.380673 69.541727 123.797284 65.398965 126.640357 60.58605 C 128.156662 58.115285 129.794813 55.350058 131.548041 52.293756 C 133.328345 49.217145 134.888651 46.299612 136.232341 43.547924 C 136.665571 42.569772 137.240954 41.530697 137.955107 40.423929 C 138.672644 39.320547 139.028028 38.322087 139.028028 37.431934 C 138.943413 36.978397 138.855413 36.663628 138.767413 36.491013 C 138.682798 36.315013 138.638798 36.044244 138.638798 35.678706 L 138.638798 35.286092 C 138.984028 35.113477 139.312336 35.025477 139.613566 35.025477 C 139.938488 35.025477 140.276949 35.025477 140.622179 35.025477 C 141.772947 35.025477 142.940637 35.187938 144.135404 35.512861 C 145.347095 35.817475 146.399708 35.969783 147.289861 35.969783 L 147.550476 35.969783 C 148.264628 35.969783 149.154781 35.841168 150.214164 35.580553 C 151.276931 35.296246 152.255083 35.025477 153.141851 34.764862 C 153.229851 34.764862 153.294158 34.744554 153.338158 34.700554 C 153.382158 34.656554 153.446466 34.636247 153.531081 34.636247 C 155.592308 34.094709 157.152614 33.651325 158.215381 33.30271 C 159.278148 32.933788 160.361224 32.619019 161.467991 32.358404 C 162.571374 32.101174 164.155371 31.925174 166.216598 31.840559 L 167.67875 31.840559 C 169.716285 31.840559 171.395051 32.04702 172.718434 32.456558 C 174.062124 32.849173 175.43966 33.39071 176.847658 34.084555 C 179.69073 35.512861 182.279956 37.249165 184.622106 39.2867 C 186.984564 41.324236 188.480561 44.119923 189.110099 47.677148 C 189.563637 49.626683 189.790405 51.579603 189.790405 53.529138 C 189.790405 55.482058 189.519637 57.617747 188.978099 59.936205 C 188.091331 63.124507 186.713795 66.387271 184.848875 69.724496 C 182.983955 73.065106 181.251035 75.881101 179.64673 78.179251 C 177.866425 80.501093 176.025198 82.721397 174.116278 84.846932 C 172.210742 86.972467 170.149515 88.966002 167.939365 90.830922 C 165.705522 92.695842 163.08245 94.53707 160.070147 96.35799 C 157.05446 98.17891 153.900004 99.847523 150.606778 101.367213 C 147.333861 102.86321 144.22002 104.0749 141.272025 105.009053 C 138.344337 105.93982 135.907418 106.50505 133.954498 106.701358 Z M 192.430401 109.62566 C 190.220251 112.01181 187.955947 114.722883 185.634105 117.755493 C 183.335955 120.77118 181.027651 123.522868 178.709193 126.017326 C 177.731041 126.711171 176.888273 127.652092 176.170736 128.846859 C 175.476891 130.05855 174.373508 130.752395 172.853818 130.928394 L 172.593203 130.928394 C 171.706436 130.928394 170.988898 130.698241 170.447361 130.244703 C 169.926131 129.811473 169.354132 129.506858 168.724594 129.334243 L 167.651673 129.334243 C 166.047368 128.877321 164.734139 128.098861 163.715372 126.992093 C 162.696604 125.885326 161.840298 124.758251 161.146453 123.610868 C 160.692915 122.808715 160.246147 121.874563 159.812917 120.811796 C 159.359379 119.752413 159.08861 118.591492 159.00061 117.332417 L 159.00061 116.943187 C 159.00061 114.276114 159.467687 111.879811 160.398454 109.75766 C 161.332607 107.632125 162.287067 105.679205 163.261834 103.902285 L 163.522449 103.350594 C 166.643059 97.583219 170.393207 92.086613 174.772892 86.86416 C 179.172885 81.61463 183.955338 77.258637 189.113484 73.789412 C 189.374098 72.902645 189.861482 72.283261 190.57902 71.934646 C 191.553787 71.934646 192.464247 72.022646 193.3104 72.195261 C 194.153167 72.371261 195.023012 72.543876 195.90978 72.716491 C 196.887932 72.889106 197.8187 73.139567 198.708852 73.46449 C 199.59562 73.769105 200.485772 74.006027 201.37254 74.178642 L 205.633764 74.862334 C 206.608531 75.034949 207.542684 75.309102 208.429451 75.67464 C 209.319604 76.023255 210.209756 76.32787 211.096524 76.5851 C 212.961444 77.214637 214.359288 77.996482 215.29344 78.92725 C 216.224208 79.861402 216.735284 81.387861 216.819899 83.513396 L 216.819899 84.457702 C 216.819899 86.126315 216.149746 87.317698 214.806056 88.03185 C 214.457441 88.292465 214.014058 88.478619 213.47252 88.586926 C 212.95129 88.671541 212.419906 88.715541 211.878369 88.715541 C 210.466986 88.715541 209.22145 88.400773 208.138375 87.77462 C 207.87776 87.514005 207.617145 87.189082 207.35653 86.796468 C 207.095915 86.38693 206.784531 86.136469 206.415609 86.048469 L 206.022994 86.048469 C 205.308841 86.048469 204.354381 86.25493 203.162999 86.667852 C 201.971616 87.057083 201.061156 87.426005 200.431619 87.77462 C 199.629466 88.316157 198.891621 88.857695 198.218084 89.399233 C 197.568239 89.920462 196.928547 90.397692 196.302395 90.830922 C 192.39994 94.124148 188.335023 98.104449 184.107646 102.765056 C 179.900576 107.425664 176.323043 112.597348 173.375048 118.276723 C 174.546123 117.843493 175.575044 117.203802 176.465197 116.357649 C 177.351965 115.511497 178.231963 114.689037 179.098423 113.886884 C 181.677496 111.480427 184.747337 108.552739 188.301177 105.107206 C 191.855017 101.637981 195.053474 98.385371 197.893161 95.349377 L 197.893161 95.220761 C 197.893161 94.614916 198.133469 94.01584 198.610699 93.430303 C 199.108236 92.844765 199.629466 92.509689 200.171004 92.425074 L 200.431619 92.425074 C 201.145771 92.425074 201.873462 92.607843 202.611307 92.976765 C 203.36946 93.321995 203.975305 93.58261 204.432227 93.75861 L 204.950073 93.75861 C 205.298687 93.75861 205.654071 93.897379 206.022994 94.178302 C 207.542684 94.266301 208.984527 94.733378 210.348525 95.57953 C 211.715907 96.422298 212.399599 97.549373 212.399599 98.960755 C 212.399599 99.305985 212.311599 99.752754 212.138984 100.294291 C 211.962984 100.835829 211.627908 101.279213 211.13037 101.627828 C 210.65314 101.973058 210.284218 102.375826 210.023603 102.829364 C 209.048835 103.980131 208.019914 105.55059 206.933454 107.544125 C 205.874071 109.541045 205.254687 111.023504 205.082072 112.001657 C 205.254687 112.455194 205.613456 112.681963 206.154994 112.681963 C 206.500224 112.681963 206.770993 112.641348 206.9673 112.553348 C 208.92022 111.839195 210.727601 110.861043 212.399599 109.62566 C 212.853136 109.256738 213.232213 108.877662 213.536828 108.488432 C 213.86175 108.099201 214.284826 107.84874 214.806056 107.740433 C 214.630057 108.36997 214.437134 108.887816 214.220519 109.300738 C 214.003904 109.689968 213.841442 110.201044 213.72975 110.830582 C 213.72975 111.175812 213.797443 111.514273 213.926058 111.839195 C 214.078365 112.140426 214.152827 112.424733 214.152827 112.681963 C 214.068211 113.226885 213.753443 113.886884 213.211905 114.665344 C 212.778675 115.294882 212.375906 116.012419 212.006984 116.814572 C 211.661754 117.616724 211.258985 118.320723 210.805447 118.926568 C 210.111602 119.644105 209.299296 120.402258 208.365144 121.20441 C 207.434376 122.006563 206.469762 122.764716 205.471302 123.478868 C 205.038072 123.827483 204.570996 124.162559 204.073459 124.487482 C 203.596229 124.792097 203.044537 125.117019 202.415 125.46225 C 201.264233 126.264402 200.245465 126.667171 199.358697 126.667171 C 199.010082 126.667171 198.719006 126.687478 198.478699 126.731478 C 198.262084 126.775478 198.069161 126.795786 197.893161 126.795786 L 197.635931 126.795786 C 197.006393 126.795786 196.485164 126.687478 196.072241 126.470863 C 195.683011 126.254248 195.358089 126.101941 195.097474 126.017326 C 194.034706 125.299788 193.232554 124.585636 192.691016 123.871483 C 192.169786 123.153946 191.824556 121.908409 191.651941 120.131489 C 191.651941 118.635492 191.692556 116.933033 191.780556 115.024113 C 191.868556 113.118578 192.085171 111.317965 192.430401 109.62566 Z M 239.442631 99.901677 C 239.527246 99.536139 239.723553 99.241678 240.028168 99.025063 C 240.353091 98.808448 240.644167 98.56814 240.904782 98.31091 C 242.681702 96.530605 244.231853 94.49307 245.555236 92.19492 C 246.898926 89.876463 248.144462 87.470005 249.29523 84.975548 C 248.689385 84.975548 248.158001 85.138009 247.701078 85.462931 C 247.267848 85.767546 246.824465 86.048469 246.367542 86.309084 C 243.439855 88.174004 240.373398 90.506 237.164788 93.301688 C 233.97987 96.097375 231.539567 99.004755 229.847262 102.017058 C 231.018337 102.90721 232.016797 103.64167 232.839257 104.227208 C 233.685409 104.792438 234.822638 105.570898 236.254328 106.569358 C 237.662326 107.45951 238.857093 108.36997 239.831861 109.300738 C 240.830321 110.23489 241.588473 111.402581 242.109703 112.813963 C 242.563241 113.87673 242.87801 115.034267 243.050625 116.293342 C 243.138625 116.638572 243.182624 117.08534 243.182624 117.626878 C 243.182624 118.601646 242.952471 119.468106 242.498933 120.226258 C 242.065703 120.964103 241.717088 121.77641 241.456473 122.666562 C 240.481706 124.010252 239.14817 125.259173 237.459249 126.406556 C 235.766944 127.553938 233.902024 128.576091 231.864489 129.462858 C 229.914954 130.265011 228.09065 131.111163 226.401729 132.001316 C 224.709424 132.888083 222.976504 133.551467 221.199584 133.984697 C 220.850969 134.069312 220.471893 134.137004 220.058971 134.17762 C 219.66974 134.245312 219.246664 134.319773 218.793127 134.407773 L 216.677745 135.057618 C 216.308823 135.142233 215.973747 135.186233 215.669132 135.186233 C 215.367901 135.186233 215.02944 135.186233 214.660518 135.186233 C 214.054673 135.274233 213.242366 135.338541 212.223599 135.382541 C 211.181139 135.426541 210.314679 135.446848 209.620834 135.446848 C 209.532834 135.446848 209.383911 135.446848 209.167296 135.446848 C 208.926989 135.446848 208.720528 135.402848 208.547913 135.318233 C 208.375298 135.230233 208.243298 135.142233 208.158683 135.057618 C 208.070683 134.969618 207.928529 134.881618 207.735606 134.797003 C 207.126377 134.536388 206.530685 134.309619 205.945148 134.113312 C 205.35961 133.940697 204.895919 133.680082 204.547304 133.334852 C 204.286689 132.87793 204.005766 132.444699 203.701152 132.031777 C 203.376229 131.642547 203.085153 131.273624 202.824538 130.928394 C 202.736538 130.210857 202.587615 129.496704 202.367615 128.779167 C 202.130693 128.085322 202.012231 127.381323 202.012231 126.667171 C 202.096847 126.233941 202.239 125.800711 202.435308 125.36748 C 202.607923 124.910558 202.695922 124.45702 202.695922 124.000098 C 202.953153 124.172713 203.169768 124.423174 203.345768 124.748097 C 203.518383 125.052712 203.789151 125.289634 204.158074 125.46225 C 204.503304 125.638249 204.994073 125.722864 205.620225 125.722864 C 206.141455 125.722864 206.652531 125.638249 207.150069 125.46225 C 207.627299 125.289634 208.17899 125.117019 208.808528 124.944404 C 208.893143 124.944404 208.960835 124.920712 209.004835 124.876712 C 209.04545 124.836097 209.113143 124.812404 209.197758 124.812404 C 210.890063 124.270867 212.558675 123.621022 214.20698 122.862869 C 215.855285 122.104717 217.381744 121.421025 218.793127 120.811796 C 221.023584 119.837028 223.094966 118.797953 225.003885 117.691186 C 226.909421 116.56411 228.611879 115.210267 230.107877 113.626269 C 227.897727 112.455194 225.589423 111.253658 223.182965 110.018275 C 220.796815 108.779508 219.074049 107.090588 218.011282 104.944745 C 216.948514 102.558595 216.41713 99.901677 216.41713 96.977374 L 216.41713 96.165067 C 216.677745 92.780458 217.740513 89.94077 219.605433 87.64262 C 221.470353 85.324162 223.419888 83.188474 225.457423 81.235554 L 228.513726 78.311251 C 229.576493 77.333099 230.703568 76.402331 231.898335 75.512179 C 233.110026 74.625411 234.291255 73.779259 235.442022 72.977106 C 236.071559 72.543876 236.687558 72.154646 237.296788 71.806031 C 237.922941 71.437109 238.508478 71.037725 239.050016 70.604495 C 239.310631 70.408187 239.550938 70.137418 239.767553 69.788804 C 240.004476 69.443573 240.254937 69.226958 240.515552 69.138959 C 240.776167 68.946036 241.05709 68.847882 241.361704 68.847882 C 241.686627 68.847882 241.977703 68.847882 242.238318 68.847882 L 243.31124 68.847882 C 244.546622 69.216805 246.269389 69.802342 248.482923 70.604495 C 250.713381 71.382955 252.317686 72.130954 253.295838 72.848491 C 253.837376 73.214029 254.41276 73.55249 255.018605 73.85372 C 255.648142 74.158335 256.18968 74.537411 256.643217 74.994333 C 256.819217 75.166949 256.96814 75.363256 257.10014 75.579871 C 257.228755 75.796486 257.381062 76.002947 257.553677 76.19587 C 257.729677 76.456485 258.030907 76.693408 258.464137 76.913407 C 258.92106 77.130022 259.333982 77.333099 259.69952 77.529406 C 260.501673 77.878021 261.165056 78.158944 261.686286 78.375559 C 262.227824 78.592174 262.542592 79.198019 262.627208 80.196479 L 262.627208 80.846324 C 262.627208 82.450629 262.248131 83.966934 261.489979 85.398624 C 260.731826 86.810006 259.949981 88.001389 259.147829 88.976156 C 258.887214 89.236771 258.650291 89.527848 258.433676 89.856155 C 258.217061 90.157385 258.0106 90.397692 257.814292 90.570308 C 257.729677 90.742923 257.53337 90.929076 257.228755 91.121999 C 256.927525 91.294614 256.677064 91.470614 256.480756 91.643229 C 255.333373 92.878611 253.955837 93.941379 252.351532 94.831531 C 250.767535 95.718299 249.217384 96.608451 247.701078 97.495219 L 243.571855 98.828755 C 242.857702 99.004755 242.163857 99.231524 241.49032 99.512447 C 240.840474 99.773061 240.156783 99.901677 239.442631 99.901677 Z M 275.668109 99.901677 C 275.756109 99.536139 275.949032 99.241678 276.253646 99.025063 C 276.578569 98.808448 276.869645 98.56814 277.13026 98.31091 C 278.910565 96.530605 280.460716 94.49307 281.780714 92.19492 C 283.124404 89.876463 284.373325 87.470005 285.520708 84.975548 C 284.914863 84.975548 284.383479 85.138009 283.926557 85.462931 C 283.493327 85.767546 283.049943 86.048469 282.59302 86.309084 C 279.668718 88.174004 276.598877 90.506 273.390267 93.301688 C 270.205349 96.097375 267.765045 99.004755 266.076125 102.017058 C 267.243815 102.90721 268.242275 103.64167 269.06812 104.227208 C 269.910888 104.792438 271.051501 105.570898 272.479807 106.569358 C 273.891189 107.45951 275.082571 108.36997 276.057339 109.300738 C 277.055799 110.23489 277.813951 111.402581 278.335181 112.813963 C 278.788719 113.87673 279.103488 115.034267 279.276103 116.293342 C 279.364103 116.638572 279.408103 117.08534 279.408103 117.626878 C 279.408103 118.601646 279.181334 119.468106 278.724412 120.226258 C 278.291181 120.964103 277.945951 121.77641 277.685336 122.666562 C 276.707184 124.010252 275.373648 125.259173 273.684728 126.406556 C 271.992423 127.553938 270.127503 128.576091 268.089968 129.462858 C 266.140432 130.265011 264.319512 131.111163 262.627208 132.001316 C 260.938287 132.888083 259.201982 133.551467 257.425062 133.984697 C 257.076447 134.069312 256.697371 134.137004 256.287833 134.17762 C 255.895219 134.245312 255.472142 134.319773 255.018605 134.407773 L 252.903224 135.057618 C 252.534301 135.142233 252.199225 135.186233 251.89461 135.186233 C 251.59338 135.186233 251.258303 135.186233 250.889381 135.186233 C 250.280151 135.274233 249.467845 135.338541 248.449077 135.382541 C 247.410002 135.426541 246.540157 135.446848 245.846312 135.446848 C 245.761697 135.446848 245.60939 135.446848 245.392775 135.446848 C 245.152467 135.446848 244.949391 135.402848 244.773391 135.318233 C 244.600776 135.230233 244.472161 135.142233 244.384161 135.057618 C 244.296161 134.969618 244.157392 134.881618 243.961085 134.797003 C 243.35524 134.536388 242.759548 134.309619 242.174011 134.113312 C 241.588473 133.940697 241.121397 133.680082 240.776167 133.334852 C 240.515552 132.87793 240.231245 132.444699 239.930014 132.031777 C 239.605092 131.642547 239.310631 131.273624 239.050016 130.928394 C 238.965401 130.210857 238.813093 129.496704 238.596478 128.779167 C 238.356171 128.085322 238.23771 127.381323 238.23771 126.667171 C 238.325709 126.233941 238.464478 125.800711 238.660786 125.36748 C 238.833401 124.910558 238.921401 124.45702 238.921401 124.000098 C 239.182016 124.172713 239.398631 124.423174 239.571246 124.748097 C 239.743861 125.052712 240.01463 125.289634 240.383552 125.46225 C 240.732167 125.638249 241.219551 125.722864 241.849088 125.722864 C 242.366933 125.722864 242.87801 125.638249 243.375547 125.46225 C 243.852777 125.289634 244.404469 125.117019 245.034006 124.944404 C 245.122006 124.944404 245.186313 124.920712 245.230313 124.876712 C 245.274313 124.836097 245.338621 124.812404 245.423236 124.812404 C 247.115541 124.270867 248.784154 123.621022 250.432459 122.862869 C 252.080763 122.104717 253.607222 121.421025 255.018605 120.811796 C 257.252447 119.837028 259.320444 118.797953 261.229364 117.691186 C 263.138284 116.56411 264.837358 115.210267 266.333355 113.626269 C 264.123205 112.455194 261.814901 111.253658 259.408444 110.018275 C 257.022294 108.779508 255.299527 107.090588 254.23676 104.944745 C 253.173992 102.558595 252.642609 99.901677 252.642609 96.977374 L 252.642609 96.165067 C 252.903224 92.780458 253.965991 89.94077 255.830911 87.64262 C 257.695831 85.324162 259.645366 83.188474 261.682901 81.235554 L 264.742589 78.311251 C 265.805356 77.333099 266.932431 76.402331 268.123814 75.512179 C 269.338889 74.625411 270.520117 73.779259 271.6675 72.977106 C 272.297038 72.543876 272.913037 72.154646 273.522266 71.806031 C 274.151804 71.437109 274.737341 71.037725 275.278879 70.604495 C 275.539494 70.408187 275.776416 70.137418 275.993031 69.788804 C 276.233339 69.443573 276.480415 69.226958 276.74103 69.138959 C 277.001645 68.946036 277.282568 68.847882 277.587183 68.847882 C 277.912105 68.847882 278.203182 68.847882 278.463797 68.847882 L 279.536718 68.847882 C 280.7721 69.216805 282.498251 69.802342 284.708402 70.604495 C 286.942244 71.382955 288.546549 72.130954 289.521317 72.848491 C 290.062854 73.214029 290.638238 73.55249 291.244083 73.85372 C 291.87362 74.158335 292.415158 74.537411 292.87208 74.994333 C 293.044695 75.166949 293.197003 75.363256 293.325618 75.579871 C 293.457618 75.796486 293.606541 76.002947 293.78254 76.19587 C 293.955155 76.456485 294.25977 76.693408 294.693 76.913407 C 295.146538 77.130022 295.55946 77.333099 295.928383 77.529406 C 296.730535 77.878021 297.390534 78.158944 297.911764 78.375559 C 298.453302 78.592174 298.768071 79.198019 298.85607 80.196479 L 298.85607 80.846324 C 298.85607 82.450629 298.473609 83.966934 297.715457 85.398624 C 296.957304 86.810006 296.175459 88.001389 295.373307 88.976156 C 295.116077 89.236771 294.875769 89.527848 294.659154 89.856155 C 294.442539 90.157385 294.236078 90.397692 294.043155 90.570308 C 293.955155 90.742923 293.758848 90.929076 293.457618 91.121999 C 293.153003 91.294614 292.902542 91.470614 292.709619 91.643229 C 291.558852 92.878611 290.181316 93.941379 288.577011 94.831531 C 286.996398 95.718299 285.446247 96.608451 283.926557 97.495219 L 279.797333 98.828755 C 279.08318 99.004755 278.389335 99.231524 277.715798 99.512447 C 277.065953 99.773061 276.382262 99.901677 275.668109 99.901677 Z M 275.668109 99.901677 " stroke="#17223a" stroke-width="10.656" stroke-opacity="1" stroke-miterlimit="4"/><g fill="#ffffff" fill-opacity="1"><g transform="translate(74.411925, 208.362465)"><g><path d="M 49.1875 -47.34375 C 51.957031 -48.78125 54.675781 -50.34375 57.34375 -52.03125 C 60.007812 -53.726562 62.625 -55.550781 65.1875 -57.5 C 67.4375 -59.34375 69.945312 -61.617188 72.71875 -64.328125 C 75.488281 -67.046875 78.148438 -69.941406 80.703125 -73.015625 C 83.265625 -76.097656 85.265625 -79.070312 86.703125 -81.9375 C 87.628906 -83.375 88.445312 -85.015625 89.15625 -86.859375 C 89.875 -88.703125 90.285156 -90.597656 90.390625 -92.546875 C 90.390625 -93.265625 90.3125 -94.007812 90.15625 -94.78125 C 90.007812 -95.550781 89.726562 -96.085938 89.3125 -96.390625 C 88.800781 -96.796875 87.929688 -97 86.703125 -97 C 85.679688 -97 84.65625 -96.894531 83.625 -96.6875 C 82.601562 -96.488281 81.785156 -96.335938 81.171875 -96.234375 C 79.628906 -96.035156 77.960938 -95.675781 76.171875 -95.15625 C 74.378906 -94.644531 72.765625 -94.132812 71.328125 -93.625 C 69.898438 -93.113281 68.109375 -92.367188 65.953125 -91.390625 C 63.796875 -90.421875 62.15625 -89.421875 61.03125 -88.390625 C 58.570312 -84.703125 56.675781 -81.703125 55.34375 -79.390625 C 54.007812 -77.085938 52.78125 -75.015625 51.65625 -73.171875 C 50.53125 -71.328125 48.992188 -69.070312 47.046875 -66.40625 C 44.378906 -62.71875 41.660156 -58.671875 38.890625 -54.265625 C 36.128906 -49.859375 33.722656 -45.707031 31.671875 -41.8125 C 35.566406 -42.125 38.742188 -42.765625 41.203125 -43.734375 C 43.660156 -44.710938 46.320312 -45.914062 49.1875 -47.34375 Z M 38.890625 -24.59375 C 38.078125 -24.488281 37.335938 -24.4375 36.671875 -24.4375 C 36.003906 -24.4375 35.3125 -24.4375 34.59375 -24.4375 C 33.664062 -24.4375 32.710938 -24.488281 31.734375 -24.59375 C 30.765625 -24.695312 29.566406 -24.90625 28.140625 -25.21875 C 27.523438 -25.3125 26.832031 -25.507812 26.0625 -25.8125 C 25.289062 -26.125 24.703125 -26.28125 24.296875 -26.28125 L 24.140625 -26.28125 C 23.628906 -26.1875 23.113281 -25.648438 22.59375 -24.671875 C 22.082031 -23.703125 21.722656 -22.957031 21.515625 -22.4375 L 21.515625 -22.296875 C 19.671875 -18.398438 17.617188 -14.347656 15.359375 -10.140625 C 13.109375 -5.941406 11.269531 -1.742188 9.84375 2.453125 C 9.425781 3.171875 9.085938 3.96875 8.828125 4.84375 C 8.578125 5.71875 8.347656 6.5625 8.140625 7.375 L 7.6875 8.140625 C 7.070312 9.378906 6.53125 10.457031 6.0625 11.375 C 5.601562 12.300781 4.8125 13.171875 3.6875 13.984375 C 3.28125 14.296875 2.816406 14.65625 2.296875 15.0625 C 1.785156 15.476562 1.378906 15.734375 1.078125 15.828125 L 0.609375 15.828125 C -0.203125 15.828125 -0.96875 15.570312 -1.6875 15.0625 C -2.300781 14.757812 -3.222656 14.300781 -4.453125 13.6875 C -5.679688 13.070312 -6.554688 12.503906 -7.078125 11.984375 C -7.785156 10.960938 -8.421875 9.835938 -8.984375 8.609375 C -9.554688 7.378906 -9.84375 5.992188 -9.84375 4.453125 C -9.632812 1.796875 -9.039062 -0.8125 -8.0625 -3.375 C -7.09375 -5.9375 -6.25 -8.296875 -5.53125 -10.453125 C -4.40625 -12.910156 -3.226562 -15.472656 -2 -18.140625 C -0.769531 -20.804688 0.359375 -23.164062 1.390625 -25.21875 C 3.535156 -29.414062 5.679688 -33.585938 7.828125 -37.734375 C 9.984375 -41.890625 12.242188 -46.019531 14.609375 -50.125 L 15.375 -51.65625 C 17.53125 -55.550781 19.757812 -59.492188 22.0625 -63.484375 C 24.363281 -67.484375 27.15625 -72.253906 30.4375 -77.796875 C 32.175781 -80.660156 34.070312 -83.859375 36.125 -87.390625 C 38.175781 -90.929688 39.972656 -94.289062 41.515625 -97.46875 C 42.023438 -98.59375 42.6875 -99.796875 43.5 -101.078125 C 44.320312 -102.359375 44.734375 -103.515625 44.734375 -104.546875 C 44.628906 -105.054688 44.523438 -105.410156 44.421875 -105.609375 C 44.328125 -105.816406 44.28125 -106.125 44.28125 -106.53125 L 44.28125 -107 C 44.6875 -107.207031 45.066406 -107.3125 45.421875 -107.3125 C 45.785156 -107.3125 46.171875 -107.3125 46.578125 -107.3125 C 47.910156 -107.3125 49.269531 -107.128906 50.65625 -106.765625 C 52.039062 -106.410156 53.242188 -106.234375 54.265625 -106.234375 L 54.578125 -106.234375 C 55.398438 -106.234375 56.425781 -106.382812 57.65625 -106.6875 C 58.882812 -107 60.007812 -107.304688 61.03125 -107.609375 C 61.132812 -107.609375 61.210938 -107.632812 61.265625 -107.6875 C 61.316406 -107.738281 61.394531 -107.765625 61.5 -107.765625 C 63.851562 -108.378906 65.644531 -108.890625 66.875 -109.296875 C 68.101562 -109.710938 69.359375 -110.070312 70.640625 -110.375 C 71.921875 -110.6875 73.738281 -110.894531 76.09375 -111 L 77.796875 -111 C 80.148438 -111 82.09375 -110.765625 83.625 -110.296875 C 85.164062 -109.835938 86.753906 -109.195312 88.390625 -108.375 C 91.671875 -106.738281 94.671875 -104.738281 97.390625 -102.375 C 100.109375 -100.019531 101.828125 -96.796875 102.546875 -92.703125 C 103.054688 -90.441406 103.3125 -88.1875 103.3125 -85.9375 C 103.3125 -83.6875 103.003906 -81.226562 102.390625 -78.5625 C 101.359375 -74.875 99.765625 -71.109375 97.609375 -67.265625 C 95.460938 -63.421875 93.46875 -60.164062 91.625 -57.5 C 89.570312 -54.832031 87.441406 -52.269531 85.234375 -49.8125 C 83.035156 -47.351562 80.65625 -45.046875 78.09375 -42.890625 C 75.53125 -40.734375 72.503906 -38.601562 69.015625 -36.5 C 65.535156 -34.40625 61.898438 -32.488281 58.109375 -30.75 C 54.316406 -29.007812 50.726562 -27.597656 47.34375 -26.515625 C 43.96875 -25.441406 41.148438 -24.800781 38.890625 -24.59375 Z M 38.890625 -24.59375 "/></g></g></g><g fill="#ffffff" fill-opacity="1"><g transform="translate(145.427433, 208.362465)"><g><path d="M 35.359375 -21.21875 C 32.796875 -18.445312 30.179688 -15.316406 27.515625 -11.828125 C 24.847656 -8.347656 22.1875 -5.175781 19.53125 -2.3125 C 18.394531 -1.488281 17.414062 -0.382812 16.59375 1 C 15.78125 2.382812 14.503906 3.175781 12.765625 3.375 L 12.453125 3.375 C 11.429688 3.375 10.613281 3.117188 10 2.609375 C 9.382812 2.097656 8.71875 1.738281 8 1.53125 L 6.765625 1.53125 C 4.921875 1.019531 3.410156 0.125 2.234375 -1.15625 C 1.054688 -2.4375 0.0546875 -3.742188 -0.765625 -5.078125 C -1.273438 -5.992188 -1.785156 -7.066406 -2.296875 -8.296875 C -2.816406 -9.523438 -3.128906 -10.859375 -3.234375 -12.296875 L -3.234375 -12.765625 C -3.234375 -15.835938 -2.691406 -18.601562 -1.609375 -21.0625 C -0.535156 -23.519531 0.5625 -25.773438 1.6875 -27.828125 L 2 -28.4375 C 5.582031 -35.101562 9.910156 -41.457031 14.984375 -47.5 C 20.054688 -53.550781 25.566406 -58.570312 31.515625 -62.5625 C 31.828125 -63.59375 32.390625 -64.3125 33.203125 -64.71875 C 34.328125 -64.71875 35.375 -64.613281 36.34375 -64.40625 C 37.320312 -64.207031 38.328125 -64.003906 39.359375 -63.796875 C 40.484375 -63.597656 41.554688 -63.316406 42.578125 -62.953125 C 43.609375 -62.597656 44.632812 -62.316406 45.65625 -62.109375 L 50.578125 -61.34375 C 51.703125 -61.132812 52.773438 -60.820312 53.796875 -60.40625 C 54.828125 -60 55.851562 -59.644531 56.875 -59.34375 C 59.03125 -58.625 60.644531 -57.722656 61.71875 -56.640625 C 62.800781 -55.566406 63.394531 -53.800781 63.5 -51.34375 L 63.5 -50.265625 C 63.5 -48.316406 62.726562 -46.9375 61.1875 -46.125 C 60.78125 -45.8125 60.265625 -45.601562 59.640625 -45.5 C 59.023438 -45.40625 58.410156 -45.359375 57.796875 -45.359375 C 56.160156 -45.359375 54.726562 -45.710938 53.5 -46.421875 C 53.1875 -46.734375 52.875 -47.117188 52.5625 -47.578125 C 52.257812 -48.035156 51.90625 -48.316406 51.5 -48.421875 L 51.046875 -48.421875 C 50.222656 -48.421875 49.117188 -48.191406 47.734375 -47.734375 C 46.347656 -47.273438 45.296875 -46.835938 44.578125 -46.421875 C 43.660156 -45.804688 42.816406 -45.191406 42.046875 -44.578125 C 41.273438 -43.960938 40.53125 -43.398438 39.8125 -42.890625 C 35.300781 -39.097656 30.613281 -34.507812 25.75 -29.125 C 20.882812 -23.75 16.757812 -17.78125 13.375 -11.21875 C 14.707031 -11.726562 15.882812 -12.46875 16.90625 -13.4375 C 17.9375 -14.414062 18.960938 -15.367188 19.984375 -16.296875 C 22.953125 -19.066406 26.488281 -22.445312 30.59375 -26.4375 C 34.695312 -30.4375 38.382812 -34.179688 41.65625 -37.671875 L 41.65625 -37.8125 C 41.65625 -38.53125 41.9375 -39.222656 42.5 -39.890625 C 43.070312 -40.554688 43.664062 -40.941406 44.28125 -41.046875 L 44.578125 -41.046875 C 45.398438 -41.046875 46.242188 -40.835938 47.109375 -40.421875 C 47.984375 -40.015625 48.675781 -39.710938 49.1875 -39.515625 L 49.8125 -39.515625 C 50.21875 -39.515625 50.628906 -39.359375 51.046875 -39.046875 C 52.785156 -38.941406 54.445312 -38.398438 56.03125 -37.421875 C 57.625 -36.453125 58.421875 -35.148438 58.421875 -33.515625 C 58.421875 -33.109375 58.316406 -32.597656 58.109375 -31.984375 C 57.898438 -31.359375 57.515625 -30.84375 56.953125 -30.4375 C 56.390625 -30.03125 55.957031 -29.570312 55.65625 -29.0625 C 54.519531 -27.726562 53.335938 -25.90625 52.109375 -23.59375 C 50.878906 -21.289062 50.164062 -19.578125 49.96875 -18.453125 C 50.164062 -17.929688 50.570312 -17.671875 51.1875 -17.671875 C 51.601562 -17.671875 51.910156 -17.722656 52.109375 -17.828125 C 54.367188 -18.648438 56.472656 -19.78125 58.421875 -21.21875 C 58.929688 -21.625 59.363281 -22.054688 59.71875 -22.515625 C 60.082031 -22.984375 60.570312 -23.269531 61.1875 -23.375 C 60.976562 -22.65625 60.742188 -22.0625 60.484375 -21.59375 C 60.234375 -21.132812 60.054688 -20.546875 59.953125 -19.828125 C 59.953125 -19.421875 60.03125 -19.035156 60.1875 -18.671875 C 60.34375 -18.316406 60.421875 -17.984375 60.421875 -17.671875 C 60.316406 -17.054688 59.957031 -16.289062 59.34375 -15.375 C 58.832031 -14.65625 58.367188 -13.832031 57.953125 -12.90625 C 57.546875 -11.988281 57.085938 -11.171875 56.578125 -10.453125 C 55.753906 -9.628906 54.800781 -8.753906 53.71875 -7.828125 C 52.644531 -6.910156 51.546875 -6.046875 50.421875 -5.234375 C 49.910156 -4.816406 49.375 -4.425781 48.8125 -4.0625 C 48.25 -3.707031 47.609375 -3.328125 46.890625 -2.921875 C 45.554688 -1.992188 44.378906 -1.53125 43.359375 -1.53125 C 42.941406 -1.53125 42.601562 -1.503906 42.34375 -1.453125 C 42.09375 -1.410156 41.863281 -1.390625 41.65625 -1.390625 L 41.359375 -1.390625 C 40.640625 -1.390625 40.046875 -1.515625 39.578125 -1.765625 C 39.117188 -2.023438 38.738281 -2.207031 38.4375 -2.3125 C 37.207031 -3.125 36.285156 -3.941406 35.671875 -4.765625 C 35.054688 -5.585938 34.644531 -7.023438 34.4375 -9.078125 C 34.4375 -10.816406 34.488281 -12.785156 34.59375 -14.984375 C 34.695312 -17.191406 34.953125 -19.269531 35.359375 -21.21875 Z M 35.359375 -21.21875 "/></g></g></g><g fill="#ffffff" fill-opacity="1"><g transform="translate(204.299485, 208.362465)"><g><path d="M 30.75 -32.4375 C 30.851562 -32.84375 31.082031 -33.175781 31.4375 -33.4375 C 31.800781 -33.695312 32.132812 -33.976562 32.4375 -34.28125 C 34.488281 -36.332031 36.28125 -38.691406 37.8125 -41.359375 C 39.351562 -44.023438 40.789062 -46.789062 42.125 -49.65625 C 41.40625 -49.65625 40.789062 -49.472656 40.28125 -49.109375 C 39.769531 -48.753906 39.253906 -48.425781 38.734375 -48.125 C 35.359375 -45.96875 31.820312 -43.273438 28.125 -40.046875 C 24.4375 -36.816406 21.617188 -33.460938 19.671875 -29.984375 C 21.003906 -28.953125 22.15625 -28.101562 23.125 -27.4375 C 24.101562 -26.769531 25.414062 -25.875 27.0625 -24.75 C 28.695312 -23.726562 30.078125 -22.675781 31.203125 -21.59375 C 32.335938 -20.519531 33.210938 -19.164062 33.828125 -17.53125 C 34.335938 -16.300781 34.691406 -14.96875 34.890625 -13.53125 C 34.992188 -13.113281 35.046875 -12.597656 35.046875 -11.984375 C 35.046875 -10.859375 34.789062 -9.859375 34.28125 -8.984375 C 33.769531 -8.117188 33.359375 -7.175781 33.046875 -6.15625 C 31.921875 -4.613281 30.382812 -3.175781 28.4375 -1.84375 C 26.488281 -0.507812 24.335938 0.664062 21.984375 1.6875 C 19.734375 2.613281 17.632812 3.585938 15.6875 4.609375 C 13.738281 5.640625 11.738281 6.410156 9.6875 6.921875 C 9.28125 7.023438 8.84375 7.097656 8.375 7.140625 C 7.914062 7.191406 7.429688 7.269531 6.921875 7.375 L 4.453125 8.140625 C 4.046875 8.242188 3.660156 8.296875 3.296875 8.296875 C 2.941406 8.296875 2.5625 8.296875 2.15625 8.296875 C 1.4375 8.398438 0.488281 8.476562 -0.6875 8.53125 C -1.863281 8.582031 -2.863281 8.609375 -3.6875 8.609375 C -3.789062 8.609375 -3.96875 8.609375 -4.21875 8.609375 C -4.476562 8.609375 -4.710938 8.554688 -4.921875 8.453125 C -5.128906 8.347656 -5.28125 8.242188 -5.375 8.140625 C -5.476562 8.046875 -5.632812 7.945312 -5.84375 7.84375 C -6.5625 7.53125 -7.253906 7.269531 -7.921875 7.0625 C -8.585938 6.863281 -9.125 6.5625 -9.53125 6.15625 C -9.84375 5.632812 -10.175781 5.144531 -10.53125 4.6875 C -10.882812 4.226562 -11.21875 3.789062 -11.53125 3.375 C -11.632812 2.5625 -11.8125 1.742188 -12.0625 0.921875 C -12.320312 0.0976562 -12.453125 -0.71875 -12.453125 -1.53125 C -12.347656 -2.050781 -12.191406 -2.566406 -11.984375 -3.078125 C -11.785156 -3.585938 -11.6875 -4.097656 -11.6875 -4.609375 C -11.375 -4.398438 -11.113281 -4.117188 -10.90625 -3.765625 C -10.707031 -3.410156 -10.40625 -3.128906 -10 -2.921875 C -9.582031 -2.710938 -9.015625 -2.609375 -8.296875 -2.609375 C -7.679688 -2.609375 -7.09375 -2.710938 -6.53125 -2.921875 C -5.96875 -3.128906 -5.328125 -3.332031 -4.609375 -3.53125 C -4.503906 -3.53125 -4.425781 -3.554688 -4.375 -3.609375 C -4.320312 -3.660156 -4.25 -3.6875 -4.15625 -3.6875 C -2.207031 -4.300781 -0.285156 -5.039062 1.609375 -5.90625 C 3.503906 -6.78125 5.273438 -7.578125 6.921875 -8.296875 C 9.484375 -9.429688 11.863281 -10.640625 14.0625 -11.921875 C 16.269531 -13.203125 18.242188 -14.765625 19.984375 -16.609375 C 17.421875 -17.941406 14.753906 -19.320312 11.984375 -20.75 C 9.222656 -22.1875 7.226562 -24.132812 6 -26.59375 C 4.769531 -29.363281 4.15625 -32.4375 4.15625 -35.8125 L 4.15625 -36.75 C 4.457031 -40.632812 5.679688 -43.910156 7.828125 -46.578125 C 9.984375 -49.242188 12.242188 -51.703125 14.609375 -53.953125 L 18.140625 -57.34375 C 19.367188 -58.46875 20.675781 -59.539062 22.0625 -60.5625 C 23.445312 -61.59375 24.804688 -62.570312 26.140625 -63.5 C 26.859375 -64.007812 27.570312 -64.46875 28.28125 -64.875 C 29 -65.28125 29.664062 -65.742188 30.28125 -66.265625 C 30.59375 -66.460938 30.875 -66.765625 31.125 -67.171875 C 31.382812 -67.585938 31.671875 -67.847656 31.984375 -67.953125 C 32.285156 -68.160156 32.613281 -68.265625 32.96875 -68.265625 C 33.332031 -68.265625 33.664062 -68.265625 33.96875 -68.265625 L 35.203125 -68.265625 C 36.640625 -67.847656 38.640625 -67.175781 41.203125 -66.25 C 43.765625 -65.332031 45.609375 -64.460938 46.734375 -63.640625 C 47.347656 -63.234375 48.015625 -62.847656 48.734375 -62.484375 C 49.453125 -62.128906 50.066406 -61.695312 50.578125 -61.1875 C 50.785156 -60.976562 50.960938 -60.742188 51.109375 -60.484375 C 51.265625 -60.234375 51.445312 -60.003906 51.65625 -59.796875 C 51.863281 -59.492188 52.222656 -59.210938 52.734375 -58.953125 C 53.242188 -58.703125 53.703125 -58.472656 54.109375 -58.265625 C 55.035156 -57.859375 55.804688 -57.523438 56.421875 -57.265625 C 57.035156 -57.003906 57.394531 -56.3125 57.5 -55.1875 L 57.5 -54.421875 C 57.5 -52.578125 57.0625 -50.832031 56.1875 -49.1875 C 55.320312 -47.550781 54.425781 -46.171875 53.5 -45.046875 C 53.1875 -44.734375 52.898438 -44.394531 52.640625 -44.03125 C 52.390625 -43.675781 52.164062 -43.398438 51.96875 -43.203125 C 51.863281 -42.992188 51.628906 -42.785156 51.265625 -42.578125 C 50.910156 -42.378906 50.628906 -42.175781 50.421875 -41.96875 C 49.085938 -40.53125 47.5 -39.300781 45.65625 -38.28125 C 43.8125 -37.257812 42.019531 -36.234375 40.28125 -35.203125 L 35.515625 -33.671875 C 34.691406 -33.460938 33.894531 -33.203125 33.125 -32.890625 C 32.363281 -32.585938 31.570312 -32.4375 30.75 -32.4375 Z M 30.75 -32.4375 "/></g></g></g><g fill="#ffffff" fill-opacity="1"><g transform="translate(246.109224, 208.362465)"><g><path d="M 30.75 -32.4375 C 30.851562 -32.84375 31.082031 -33.175781 31.4375 -33.4375 C 31.800781 -33.695312 32.132812 -33.976562 32.4375 -34.28125 C 34.488281 -36.332031 36.28125 -38.691406 37.8125 -41.359375 C 39.351562 -44.023438 40.789062 -46.789062 42.125 -49.65625 C 41.40625 -49.65625 40.789062 -49.472656 40.28125 -49.109375 C 39.769531 -48.753906 39.253906 -48.425781 38.734375 -48.125 C 35.359375 -45.96875 31.820312 -43.273438 28.125 -40.046875 C 24.4375 -36.816406 21.617188 -33.460938 19.671875 -29.984375 C 21.003906 -28.953125 22.15625 -28.101562 23.125 -27.4375 C 24.101562 -26.769531 25.414062 -25.875 27.0625 -24.75 C 28.695312 -23.726562 30.078125 -22.675781 31.203125 -21.59375 C 32.335938 -20.519531 33.210938 -19.164062 33.828125 -17.53125 C 34.335938 -16.300781 34.691406 -14.96875 34.890625 -13.53125 C 34.992188 -13.113281 35.046875 -12.597656 35.046875 -11.984375 C 35.046875 -10.859375 34.789062 -9.859375 34.28125 -8.984375 C 33.769531 -8.117188 33.359375 -7.175781 33.046875 -6.15625 C 31.921875 -4.613281 30.382812 -3.175781 28.4375 -1.84375 C 26.488281 -0.507812 24.335938 0.664062 21.984375 1.6875 C 19.734375 2.613281 17.632812 3.585938 15.6875 4.609375 C 13.738281 5.640625 11.738281 6.410156 9.6875 6.921875 C 9.28125 7.023438 8.84375 7.097656 8.375 7.140625 C 7.914062 7.191406 7.429688 7.269531 6.921875 7.375 L 4.453125 8.140625 C 4.046875 8.242188 3.660156 8.296875 3.296875 8.296875 C 2.941406 8.296875 2.5625 8.296875 2.15625 8.296875 C 1.4375 8.398438 0.488281 8.476562 -0.6875 8.53125 C -1.863281 8.582031 -2.863281 8.609375 -3.6875 8.609375 C -3.789062 8.609375 -3.96875 8.609375 -4.21875 8.609375 C -4.476562 8.609375 -4.710938 8.554688 -4.921875 8.453125 C -5.128906 8.347656 -5.28125 8.242188 -5.375 8.140625 C -5.476562 8.046875 -5.632812 7.945312 -5.84375 7.84375 C -6.5625 7.53125 -7.253906 7.269531 -7.921875 7.0625 C -8.585938 6.863281 -9.125 6.5625 -9.53125 6.15625 C -9.84375 5.632812 -10.175781 5.144531 -10.53125 4.6875 C -10.882812 4.226562 -11.21875 3.789062 -11.53125 3.375 C -11.632812 2.5625 -11.8125 1.742188 -12.0625 0.921875 C -12.320312 0.0976562 -12.453125 -0.71875 -12.453125 -1.53125 C -12.347656 -2.050781 -12.191406 -2.566406 -11.984375 -3.078125 C -11.785156 -3.585938 -11.6875 -4.097656 -11.6875 -4.609375 C -11.375 -4.398438 -11.113281 -4.117188 -10.90625 -3.765625 C -10.707031 -3.410156 -10.40625 -3.128906 -10 -2.921875 C -9.582031 -2.710938 -9.015625 -2.609375 -8.296875 -2.609375 C -7.679688 -2.609375 -7.09375 -2.710938 -6.53125 -2.921875 C -5.96875 -3.128906 -5.328125 -3.332031 -4.609375 -3.53125 C -4.503906 -3.53125 -4.425781 -3.554688 -4.375 -3.609375 C -4.320312 -3.660156 -4.25 -3.6875 -4.15625 -3.6875 C -2.207031 -4.300781 -0.285156 -5.039062 1.609375 -5.90625 C 3.503906 -6.78125 5.273438 -7.578125 6.921875 -8.296875 C 9.484375 -9.429688 11.863281 -10.640625 14.0625 -11.921875 C 16.269531 -13.203125 18.242188 -14.765625 19.984375 -16.609375 C 17.421875 -17.941406 14.753906 -19.320312 11.984375 -20.75 C 9.222656 -22.1875 7.226562 -24.132812 6 -26.59375 C 4.769531 -29.363281 4.15625 -32.4375 4.15625 -35.8125 L 4.15625 -36.75 C 4.457031 -40.632812 5.679688 -43.910156 7.828125 -46.578125 C 9.984375 -49.242188 12.242188 -51.703125 14.609375 -53.953125 L 18.140625 -57.34375 C 19.367188 -58.46875 20.675781 -59.539062 22.0625 -60.5625 C 23.445312 -61.59375 24.804688 -62.570312 26.140625 -63.5 C 26.859375 -64.007812 27.570312 -64.46875 28.28125 -64.875 C 29 -65.28125 29.664062 -65.742188 30.28125 -66.265625 C 30.59375 -66.460938 30.875 -66.765625 31.125 -67.171875 C 31.382812 -67.585938 31.671875 -67.847656 31.984375 -67.953125 C 32.285156 -68.160156 32.613281 -68.265625 32.96875 -68.265625 C 33.332031 -68.265625 33.664062 -68.265625 33.96875 -68.265625 L 35.203125 -68.265625 C 36.640625 -67.847656 38.640625 -67.175781 41.203125 -66.25 C 43.765625 -65.332031 45.609375 -64.460938 46.734375 -63.640625 C 47.347656 -63.234375 48.015625 -62.847656 48.734375 -62.484375 C 49.453125 -62.128906 50.066406 -61.695312 50.578125 -61.1875 C 50.785156 -60.976562 50.960938 -60.742188 51.109375 -60.484375 C 51.265625 -60.234375 51.445312 -60.003906 51.65625 -59.796875 C 51.863281 -59.492188 52.222656 -59.210938 52.734375 -58.953125 C 53.242188 -58.703125 53.703125 -58.472656 54.109375 -58.265625 C 55.035156 -57.859375 55.804688 -57.523438 56.421875 -57.265625 C 57.035156 -57.003906 57.394531 -56.3125 57.5 -55.1875 L 57.5 -54.421875 C 57.5 -52.578125 57.0625 -50.832031 56.1875 -49.1875 C 55.320312 -47.550781 54.425781 -46.171875 53.5 -45.046875 C 53.1875 -44.734375 52.898438 -44.394531 52.640625 -44.03125 C 52.390625 -43.675781 52.164062 -43.398438 51.96875 -43.203125 C 51.863281 -42.992188 51.628906 -42.785156 51.265625 -42.578125 C 50.910156 -42.378906 50.628906 -42.175781 50.421875 -41.96875 C 49.085938 -40.53125 47.5 -39.300781 45.65625 -38.28125 C 43.8125 -37.257812 42.019531 -36.234375 40.28125 -35.203125 L 35.515625 -33.671875 C 34.691406 -33.460938 33.894531 -33.203125 33.125 -32.890625 C 32.363281 -32.585938 31.570312 -32.4375 30.75 -32.4375 Z M 30.75 -32.4375 "/></g></g></g><g fill="#17223a" fill-opacity="1"><g transform="translate(35.148016, 296.517596)"><g><path d="M 23.21875 -57.609375 L 23.21875 -56.296875 C 22.195312 -56.148438 21.554688 -55.945312 21.296875 -55.6875 C 21.046875 -55.4375 20.921875 -55.128906 20.921875 -54.765625 C 20.921875 -54.398438 21.265625 -53.101562 21.953125 -50.875 C 22.648438 -48.644531 23.691406 -45.414062 25.078125 -41.1875 L 31.65625 -20.8125 L 31.875 -20.8125 C 32.894531 -24.09375 33.96875 -27.539062 35.09375 -31.15625 C 36.226562 -34.769531 37.347656 -38.40625 38.453125 -42.0625 C 40.859375 -49.945312 42.0625 -54.179688 42.0625 -54.765625 C 42.0625 -55.347656 41.769531 -55.710938 41.1875 -55.859375 C 40.601562 -56.003906 40.128906 -56.148438 39.765625 -56.296875 L 39.765625 -57.609375 L 65.828125 -57.609375 L 65.828125 -56.296875 C 65.242188 -56.148438 64.785156 -55.96875 64.453125 -55.75 C 64.128906 -55.53125 63.96875 -55.203125 63.96875 -54.765625 C 63.96875 -54.472656 64.3125 -53.082031 65 -50.59375 C 65.695312 -48.113281 66.773438 -44.359375 68.234375 -39.328125 C 69.691406 -34.285156 70.785156 -30.300781 71.515625 -27.375 C 72.253906 -24.457031 72.804688 -22.269531 73.171875 -20.8125 L 73.390625 -20.8125 C 73.753906 -22.269531 74.425781 -24.492188 75.40625 -27.484375 C 76.394531 -30.484375 77.691406 -34.394531 79.296875 -39.21875 C 82.515625 -48.851562 84.125 -53.960938 84.125 -54.546875 C 84.125 -55.128906 83.882812 -55.53125 83.40625 -55.75 C 82.9375 -55.96875 82.40625 -56.148438 81.8125 -56.296875 L 81.8125 -57.609375 L 100.21875 -57.609375 L 100.21875 -56.296875 C 99.632812 -56.222656 99.210938 -55.945312 98.953125 -55.46875 C 98.703125 -55 98.429688 -54.328125 98.140625 -53.453125 C 97.992188 -53.085938 97.773438 -52.429688 97.484375 -51.484375 C 97.191406 -50.535156 96.84375 -49.472656 96.4375 -48.296875 C 96.039062 -47.128906 95.640625 -45.941406 95.234375 -44.734375 C 94.835938 -43.535156 94.492188 -42.5 94.203125 -41.625 C 93.984375 -40.894531 93.578125 -39.6875 92.984375 -38 C 92.398438 -36.320312 91.742188 -34.441406 91.015625 -32.359375 C 90.285156 -30.285156 89.535156 -28.097656 88.765625 -25.796875 C 88.003906 -23.492188 87.273438 -21.316406 86.578125 -19.265625 C 85.890625 -17.222656 85.269531 -15.4375 84.71875 -13.90625 C 84.175781 -12.375 83.832031 -11.351562 83.6875 -10.84375 C 83.46875 -10.1875 83.210938 -9.421875 82.921875 -8.546875 C 82.628906 -7.671875 82.351562 -6.828125 82.09375 -6.015625 C 81.832031 -5.210938 81.609375 -4.5 81.421875 -3.875 C 81.242188 -3.257812 81.15625 -2.878906 81.15625 -2.734375 C 81.15625 -2.367188 81.300781 -2.054688 81.59375 -1.796875 C 81.882812 -1.546875 82.472656 -1.382812 83.359375 -1.3125 L 83.359375 0 L 60.578125 0 L 60.578125 -1.3125 C 62.035156 -1.53125 62.765625 -2.039062 62.765625 -2.84375 C 62.765625 -4.300781 61.191406 -10.398438 58.046875 -21.140625 C 57.828125 -21.941406 57.441406 -23.253906 56.890625 -25.078125 C 56.347656 -26.910156 55.785156 -28.847656 55.203125 -30.890625 C 54.617188 -32.929688 54.050781 -34.898438 53.5 -36.796875 C 52.957031 -38.703125 52.539062 -40.164062 52.25 -41.1875 L 52.03125 -41.1875 C 51.519531 -39.4375 50.972656 -37.570312 50.390625 -35.59375 C 49.804688 -33.625 49.21875 -31.726562 48.625 -29.90625 L 42.71875 -11.171875 C 42.5 -10.367188 42.242188 -9.507812 41.953125 -8.59375 C 41.660156 -7.6875 41.40625 -6.847656 41.1875 -6.078125 C 40.96875 -5.304688 40.785156 -4.628906 40.640625 -4.046875 C 40.492188 -3.460938 40.421875 -3.0625 40.421875 -2.84375 C 40.421875 -1.820312 41.222656 -1.3125 42.828125 -1.3125 L 42.828125 0 L 19.171875 0 L 19.171875 -1.3125 C 20.628906 -1.53125 21.359375 -2.078125 21.359375 -2.953125 C 21.359375 -3.242188 21.082031 -4.25 20.53125 -5.96875 C 19.988281 -7.6875 19.207031 -10.078125 18.1875 -13.140625 L 7.671875 -44.796875 L 4.8125 -53.34375 C 4.445312 -54.582031 4.171875 -55.363281 3.984375 -55.6875 C 3.804688 -56.019531 3.535156 -56.222656 3.171875 -56.296875 L 3.171875 -57.609375 Z M 23.21875 -57.609375 "/></g></g></g><g fill="#17223a" fill-opacity="1"><g transform="translate(128.563129, 296.517596)"><g><path d="M 28.15625 -21.25 L 48.515625 -21.25 L 37.890625 -47.3125 Z M 53.234375 -57.609375 L 53.234375 -56.296875 C 52.359375 -56.222656 51.8125 -56.054688 51.59375 -55.796875 C 51.375 -55.546875 51.265625 -55.3125 51.265625 -55.09375 C 51.265625 -54.875 51.445312 -54.253906 51.8125 -53.234375 C 52.175781 -52.210938 53.015625 -50.09375 54.328125 -46.875 L 71.53125 -4.59375 C 72.039062 -3.425781 72.476562 -2.585938 72.84375 -2.078125 C 73.207031 -1.566406 73.789062 -1.3125 74.59375 -1.3125 L 74.59375 0 L 53.015625 0 L 53.015625 -1.3125 C 53.816406 -1.382812 54.363281 -1.546875 54.65625 -1.796875 C 54.945312 -2.054688 55.09375 -2.332031 55.09375 -2.625 C 55.09375 -2.695312 54.691406 -3.796875 53.890625 -5.921875 L 51.375 -12.484375 L 25.40625 -12.484375 L 22.5625 -4.59375 C 22.125 -3.351562 21.90625 -2.625 21.90625 -2.40625 C 21.90625 -2.113281 22.03125 -1.859375 22.28125 -1.640625 C 22.539062 -1.421875 23.070312 -1.3125 23.875 -1.3125 L 23.875 0 L 4.484375 0 L 4.484375 -1.3125 C 4.992188 -1.382812 5.394531 -1.492188 5.6875 -1.640625 C 5.988281 -1.785156 6.265625 -2.003906 6.515625 -2.296875 C 6.773438 -2.585938 7.015625 -3.003906 7.234375 -3.546875 C 7.453125 -4.097656 7.742188 -4.851562 8.109375 -5.8125 L 24.53125 -48.84375 C 25.113281 -50.3125 25.640625 -51.71875 26.109375 -53.0625 C 26.585938 -54.414062 26.828125 -55.164062 26.828125 -55.3125 C 26.828125 -55.457031 26.695312 -55.617188 26.4375 -55.796875 C 26.1875 -55.984375 25.585938 -56.148438 24.640625 -56.296875 L 24.640625 -57.609375 Z M 53.234375 -57.609375 "/></g></g></g><g fill="#17223a" fill-opacity="1"><g transform="translate(197.665865, 296.517596)"><g><path d="M 31.4375 -57.609375 L 31.4375 -56.296875 C 30.050781 -56.148438 29.191406 -55.910156 28.859375 -55.578125 C 28.535156 -55.253906 28.375 -54.835938 28.375 -54.328125 L 28.375 -13.359375 L 65.9375 -13.359375 C 66.519531 -13.359375 66.972656 -13.519531 67.296875 -13.84375 C 67.628906 -14.175781 67.867188 -15.035156 68.015625 -16.421875 L 69.328125 -16.421875 L 69.328125 2.84375 L 68.015625 2.84375 C 67.867188 1.53125 67.628906 0.726562 67.296875 0.4375 C 66.972656 0.144531 66.519531 0 65.9375 0 L 8.875 0 L 8.875 -1.3125 C 10.257812 -1.457031 11.113281 -1.691406 11.4375 -2.015625 C 11.769531 -2.347656 11.9375 -2.769531 11.9375 -3.28125 L 11.9375 -54.328125 C 11.9375 -54.835938 11.769531 -55.253906 11.4375 -55.578125 C 11.113281 -55.910156 10.257812 -56.148438 8.875 -56.296875 L 8.875 -57.609375 Z M 31.4375 -57.609375 "/></g></g></g><g fill="#17223a" fill-opacity="1"><g transform="translate(260.745257, 296.517596)"><g><path d="M 66.8125 -41.625 L 65.5 -41.625 C 65.351562 -43.007812 65.113281 -43.863281 64.78125 -44.1875 C 64.457031 -44.519531 64.003906 -44.6875 63.421875 -44.6875 L 28.375 -44.6875 L 28.375 -35.59375 L 48.625 -35.59375 C 49.65625 -35.59375 50.425781 -35.789062 50.9375 -36.1875 C 51.445312 -36.59375 51.8125 -37.234375 52.03125 -38.109375 L 53.34375 -38.109375 L 53.34375 -21.03125 L 52.03125 -21.03125 C 51.882812 -21.832031 51.554688 -22.453125 51.046875 -22.890625 C 50.535156 -23.328125 49.765625 -23.546875 48.734375 -23.546875 L 28.375 -23.546875 L 28.375 -13.359375 L 63.53125 -13.359375 C 64.039062 -13.359375 64.457031 -13.519531 64.78125 -13.84375 C 65.113281 -14.175781 65.351562 -15.113281 65.5 -16.65625 L 66.8125 -16.65625 L 66.8125 2.40625 L 65.5 2.40625 C 65.351562 1.457031 65.132812 0.816406 64.84375 0.484375 C 64.550781 0.160156 64.113281 0 63.53125 0 L 8.875 0 L 8.875 -1.3125 C 10.257812 -1.457031 11.113281 -1.691406 11.4375 -2.015625 C 11.769531 -2.347656 11.9375 -2.769531 11.9375 -3.28125 L 11.9375 -54.328125 C 11.9375 -54.835938 11.769531 -55.253906 11.4375 -55.578125 C 11.113281 -55.910156 10.257812 -56.148438 8.875 -56.296875 L 8.875 -57.609375 L 63.421875 -57.609375 C 64.003906 -57.609375 64.457031 -57.769531 64.78125 -58.09375 C 65.113281 -58.425781 65.351562 -59.289062 65.5 -60.6875 L 66.8125 -60.6875 Z M 66.8125 -41.625 "/></g></g></g><g fill="#17223a" fill-opacity="1"><g transform="translate(45.197321, 189.393272)"><g><path d="M -1.6875 -2.796875 L -4.4375 -1.125 L -7.359375 4.484375 L -8.765625 2.140625 L -7 -1 L -10.609375 -0.890625 L -11.984375 -3.1875 L -5.71875 -3.15625 L -2.921875 -4.84375 Z M -1.6875 -2.796875 "/></g></g></g><g fill="#17223a" fill-opacity="1"><g transform="translate(40.270172, 181.242949)"><g><path d="M -1.90625 -4.734375 C -1.632812 -4.128906 -1.488281 -3.519531 -1.46875 -2.90625 C -1.457031 -2.289062 -1.550781 -1.71875 -1.75 -1.1875 C -1.957031 -0.664062 -2.265625 -0.1875 -2.671875 0.25 C -3.078125 0.695312 -3.5625 1.046875 -4.125 1.296875 L -4.15625 1.296875 C -4.707031 1.546875 -5.28125 1.671875 -5.875 1.671875 C -6.476562 1.679688 -7.046875 1.578125 -7.578125 1.359375 C -8.117188 1.148438 -8.609375 0.832031 -9.046875 0.40625 C -9.492188 -0.0195312 -9.851562 -0.539062 -10.125 -1.15625 C -10.382812 -1.757812 -10.519531 -2.363281 -10.53125 -2.96875 C -10.550781 -3.582031 -10.457031 -4.160156 -10.25 -4.703125 C -10.050781 -5.242188 -9.75 -5.726562 -9.34375 -6.15625 C -8.9375 -6.59375 -8.453125 -6.9375 -7.890625 -7.1875 L -7.890625 -7.203125 C -7.328125 -7.441406 -6.742188 -7.5625 -6.140625 -7.5625 C -5.546875 -7.570312 -4.976562 -7.46875 -4.4375 -7.25 C -3.90625 -7.03125 -3.414062 -6.707031 -2.96875 -6.28125 C -2.53125 -5.863281 -2.175781 -5.347656 -1.90625 -4.734375 Z M -3.890625 -3.90625 C -4.015625 -4.195312 -4.1875 -4.4375 -4.40625 -4.625 C -4.632812 -4.820312 -4.882812 -4.96875 -5.15625 -5.0625 C -5.425781 -5.15625 -5.707031 -5.191406 -6 -5.171875 C -6.289062 -5.148438 -6.582031 -5.078125 -6.875 -4.953125 L -6.90625 -4.953125 C -7.1875 -4.816406 -7.429688 -4.644531 -7.640625 -4.4375 C -7.859375 -4.238281 -8.023438 -4.007812 -8.140625 -3.75 C -8.253906 -3.488281 -8.316406 -3.203125 -8.328125 -2.890625 C -8.335938 -2.585938 -8.273438 -2.285156 -8.140625 -1.984375 C -8.003906 -1.679688 -7.820312 -1.429688 -7.59375 -1.234375 C -7.375 -1.035156 -7.128906 -0.890625 -6.859375 -0.796875 C -6.597656 -0.710938 -6.316406 -0.679688 -6.015625 -0.703125 C -5.722656 -0.722656 -5.429688 -0.796875 -5.140625 -0.921875 L -5.140625 -0.9375 C -4.847656 -1.0625 -4.59375 -1.226562 -4.375 -1.4375 C -4.15625 -1.644531 -3.988281 -1.878906 -3.875 -2.140625 C -3.757812 -2.398438 -3.695312 -2.679688 -3.6875 -2.984375 C -3.6875 -3.296875 -3.753906 -3.601562 -3.890625 -3.90625 Z M -3.890625 -3.90625 "/></g></g></g><g fill="#17223a" fill-opacity="1"><g transform="translate(35.956422, 171.298431)"><g><path d="M -1.15625 -4.5 C -0.8125 -3.332031 -0.84375 -2.3125 -1.25 -1.4375 C -1.664062 -0.570312 -2.519531 0.046875 -3.8125 0.421875 L -8.46875 1.78125 L -9.140625 -0.53125 L -4.53125 -1.875 C -3.9375 -2.050781 -3.535156 -2.320312 -3.328125 -2.6875 C -3.128906 -3.050781 -3.097656 -3.460938 -3.234375 -3.921875 C -3.367188 -4.378906 -3.617188 -4.707031 -3.984375 -4.90625 C -4.347656 -5.101562 -4.8125 -5.117188 -5.375 -4.953125 L -10.046875 -3.59375 L -10.71875 -5.921875 L -6.125 -7.265625 C -5.46875 -7.453125 -4.867188 -7.523438 -4.328125 -7.484375 C -3.796875 -7.441406 -3.320312 -7.296875 -2.90625 -7.046875 C -2.488281 -6.804688 -2.132812 -6.46875 -1.84375 -6.03125 C -1.550781 -5.59375 -1.320312 -5.082031 -1.15625 -4.5 Z M -1.15625 -4.5 "/></g></g></g><g fill="#17223a" fill-opacity="1"><g transform="translate(33.200892, 161.714275)"><g><path d="M -0.125 -0.75 L -8.640625 0.65625 L -9.296875 -3.375 C -9.410156 -4.019531 -9.421875 -4.585938 -9.328125 -5.078125 C -9.234375 -5.566406 -9.0625 -5.972656 -8.8125 -6.296875 C -8.613281 -6.585938 -8.359375 -6.820312 -8.046875 -7 C -7.742188 -7.175781 -7.382812 -7.300781 -6.96875 -7.375 L -6.9375 -7.375 C -6.289062 -7.476562 -5.722656 -7.40625 -5.234375 -7.15625 C -4.742188 -6.914062 -4.34375 -6.550781 -4.03125 -6.0625 L -1.40625 -8.578125 L -0.96875 -5.875 L -3.265625 -3.71875 L -3.09375 -2.6875 L -0.515625 -3.109375 Z M -4.9375 -2.375 L -5.1875 -3.9375 C -5.257812 -4.332031 -5.40625 -4.628906 -5.625 -4.828125 C -5.84375 -5.023438 -6.101562 -5.097656 -6.40625 -5.046875 L -6.4375 -5.046875 C -6.78125 -4.984375 -7.015625 -4.820312 -7.140625 -4.5625 C -7.265625 -4.300781 -7.296875 -3.984375 -7.234375 -3.609375 L -6.984375 -2.046875 Z M -4.9375 -2.375 "/></g></g></g><g fill="#17223a" fill-opacity="1"><g transform="translate(31.783964, 152.196795)"><g/></g></g><g fill="#17223a" fill-opacity="1"><g transform="translate(31.393849, 148.014123)"><g><path d="M 0 -0.765625 L -8.625 -0.828125 L -8.59375 -4.53125 C -8.582031 -5.601562 -8.304688 -6.460938 -7.765625 -7.109375 C -7.222656 -7.765625 -6.484375 -8.085938 -5.546875 -8.078125 L -5.515625 -8.078125 C -5.003906 -8.078125 -4.554688 -7.984375 -4.171875 -7.796875 C -3.785156 -7.609375 -3.460938 -7.347656 -3.203125 -7.015625 C -2.953125 -6.679688 -2.757812 -6.285156 -2.625 -5.828125 C -2.5 -5.378906 -2.4375 -4.890625 -2.4375 -4.359375 L -2.453125 -3.171875 L 0.015625 -3.15625 Z M -4.3125 -3.1875 L -4.296875 -4.328125 C -4.296875 -4.742188 -4.398438 -5.070312 -4.609375 -5.3125 C -4.828125 -5.5625 -5.101562 -5.6875 -5.4375 -5.6875 L -5.453125 -5.6875 C -5.828125 -5.695312 -6.109375 -5.578125 -6.296875 -5.328125 C -6.484375 -5.078125 -6.578125 -4.742188 -6.578125 -4.328125 L -6.59375 -3.203125 Z M -4.3125 -3.1875 "/></g></g></g><g fill="#17223a" fill-opacity="1"><g transform="translate(31.450069, 139.083479)"><g><path d="M 0.015625 -0.09375 L -8.125 -4.828125 L -7.828125 -7.109375 L 1.25 -9.640625 L 0.921875 -7.09375 L -0.703125 -6.6875 L -1.125 -3.375 L 0.328125 -2.5625 Z M -2.875 -4.3125 L -2.625 -6.234375 L -5.171875 -5.578125 Z M -2.875 -4.3125 "/></g></g></g><g fill="#17223a" fill-opacity="1"><g transform="translate(32.874929, 128.747167)"><g><path d="M 1.15625 -4 C 0.96875 -3.25 0.671875 -2.5625 0.265625 -1.9375 C -0.140625 -1.320312 -0.628906 -0.816406 -1.203125 -0.421875 L -2.421875 -2.09375 C -1.984375 -2.425781 -1.617188 -2.800781 -1.328125 -3.21875 C -1.046875 -3.632812 -0.84375 -4.082031 -0.71875 -4.5625 C -0.644531 -4.882812 -0.640625 -5.140625 -0.703125 -5.328125 C -0.773438 -5.515625 -0.894531 -5.628906 -1.0625 -5.671875 L -1.09375 -5.6875 C -1.269531 -5.726562 -1.4375 -5.664062 -1.59375 -5.5 C -1.757812 -5.34375 -1.984375 -5 -2.265625 -4.46875 C -2.484375 -4.039062 -2.695312 -3.648438 -2.90625 -3.296875 C -3.125 -2.941406 -3.367188 -2.648438 -3.640625 -2.421875 C -3.910156 -2.191406 -4.210938 -2.03125 -4.546875 -1.9375 C -4.878906 -1.851562 -5.253906 -1.863281 -5.671875 -1.96875 L -5.703125 -1.984375 C -6.085938 -2.078125 -6.425781 -2.238281 -6.71875 -2.46875 C -7.007812 -2.707031 -7.234375 -2.988281 -7.390625 -3.3125 C -7.554688 -3.644531 -7.65625 -4.03125 -7.6875 -4.46875 C -7.726562 -4.914062 -7.679688 -5.390625 -7.546875 -5.890625 C -7.367188 -6.597656 -7.113281 -7.210938 -6.78125 -7.734375 C -6.457031 -8.253906 -6.054688 -8.691406 -5.578125 -9.046875 L -4.21875 -7.46875 C -4.601562 -7.15625 -4.910156 -6.8125 -5.140625 -6.4375 C -5.378906 -6.070312 -5.546875 -5.710938 -5.640625 -5.359375 C -5.710938 -5.066406 -5.710938 -4.835938 -5.640625 -4.671875 C -5.578125 -4.515625 -5.472656 -4.414062 -5.328125 -4.375 L -5.296875 -4.375 C -5.097656 -4.320312 -4.914062 -4.375 -4.75 -4.53125 C -4.59375 -4.695312 -4.378906 -5.0625 -4.109375 -5.625 C -3.660156 -6.5 -3.175781 -7.171875 -2.65625 -7.640625 C -2.144531 -8.117188 -1.503906 -8.257812 -0.734375 -8.0625 L -0.703125 -8.0625 C -0.273438 -7.945312 0.0820312 -7.765625 0.375 -7.515625 C 0.675781 -7.265625 0.90625 -6.960938 1.0625 -6.609375 C 1.21875 -6.265625 1.300781 -5.863281 1.3125 -5.40625 C 1.332031 -4.957031 1.28125 -4.488281 1.15625 -4 Z M 1.15625 -4 "/></g></g></g><g fill="#17223a" fill-opacity="1"><g transform="translate(35.05234, 120.308915)"><g><path d="M 1.578125 -3.84375 C 1.304688 -3.125 0.9375 -2.476562 0.46875 -1.90625 C 0 -1.332031 -0.546875 -0.882812 -1.171875 -0.5625 L -2.1875 -2.34375 C -1.707031 -2.632812 -1.304688 -2.96875 -0.984375 -3.34375 C -0.660156 -3.726562 -0.410156 -4.148438 -0.234375 -4.609375 C -0.117188 -4.921875 -0.0820312 -5.171875 -0.125 -5.359375 C -0.164062 -5.554688 -0.269531 -5.6875 -0.4375 -5.75 L -0.46875 -5.765625 C -0.632812 -5.828125 -0.804688 -5.785156 -0.984375 -5.640625 C -1.171875 -5.503906 -1.429688 -5.1875 -1.765625 -4.6875 C -2.023438 -4.289062 -2.28125 -3.925781 -2.53125 -3.59375 C -2.789062 -3.269531 -3.066406 -3.003906 -3.359375 -2.796875 C -3.648438 -2.597656 -3.960938 -2.472656 -4.296875 -2.421875 C -4.628906 -2.367188 -5.003906 -2.421875 -5.421875 -2.578125 L -5.453125 -2.59375 C -5.816406 -2.726562 -6.128906 -2.925781 -6.390625 -3.1875 C -6.660156 -3.457031 -6.859375 -3.765625 -6.984375 -4.109375 C -7.109375 -4.460938 -7.164062 -4.859375 -7.15625 -5.296875 C -7.144531 -5.734375 -7.050781 -6.191406 -6.875 -6.671875 C -6.613281 -7.359375 -6.289062 -7.941406 -5.90625 -8.421875 C -5.519531 -8.898438 -5.066406 -9.296875 -4.546875 -9.609375 L -3.390625 -7.890625 C -3.785156 -7.609375 -4.125 -7.296875 -4.40625 -6.953125 C -4.6875 -6.617188 -4.894531 -6.28125 -5.03125 -5.9375 C -5.132812 -5.65625 -5.160156 -5.429688 -5.109375 -5.265625 C -5.054688 -5.097656 -4.957031 -4.988281 -4.8125 -4.9375 L -4.78125 -4.921875 C -4.59375 -4.847656 -4.410156 -4.882812 -4.234375 -5.03125 C -4.054688 -5.1875 -3.804688 -5.519531 -3.484375 -6.03125 C -2.941406 -6.863281 -2.382812 -7.484375 -1.8125 -7.890625 C -1.25 -8.304688 -0.59375 -8.375 0.15625 -8.09375 L 0.1875 -8.09375 C 0.59375 -7.9375 0.929688 -7.710938 1.203125 -7.421875 C 1.472656 -7.140625 1.664062 -6.816406 1.78125 -6.453125 C 1.894531 -6.085938 1.929688 -5.679688 1.890625 -5.234375 C 1.859375 -4.785156 1.753906 -4.320312 1.578125 -3.84375 Z M 1.578125 -3.84375 "/></g></g></g><g fill="#17223a" fill-opacity="1"><g transform="translate(38.256147, 112.096501)"><g/></g></g><g fill="#17223a" fill-opacity="1"><g transform="translate(39.985228, 108.264729)"><g><path d="M 1.4375 -2.5 L -4.21875 -5.75 L -5.515625 -3.5 L -7.34375 -4.546875 L -3.578125 -11.09375 L -1.75 -10.046875 L -3.046875 -7.796875 L 2.609375 -4.546875 Z M 1.4375 -2.5 "/></g></g></g><g fill="#17223a" fill-opacity="1"><g transform="translate(44.332716, 100.652238)"><g><path d="M 3.21875 -3.96875 C 2.8125 -3.4375 2.34375 -3.015625 1.8125 -2.703125 C 1.289062 -2.390625 0.75 -2.191406 0.1875 -2.109375 C -0.375 -2.023438 -0.941406 -2.050781 -1.515625 -2.1875 C -2.097656 -2.332031 -2.632812 -2.59375 -3.125 -2.96875 L -3.15625 -2.984375 C -3.644531 -3.347656 -4.035156 -3.785156 -4.328125 -4.296875 C -4.628906 -4.816406 -4.816406 -5.363281 -4.890625 -5.9375 C -4.972656 -6.507812 -4.9375 -7.09375 -4.78125 -7.6875 C -4.625 -8.289062 -4.34375 -8.859375 -3.9375 -9.390625 C -3.539062 -9.910156 -3.078125 -10.328125 -2.546875 -10.640625 C -2.023438 -10.953125 -1.476562 -11.15625 -0.90625 -11.25 C -0.332031 -11.34375 0.238281 -11.316406 0.8125 -11.171875 C 1.382812 -11.023438 1.921875 -10.765625 2.421875 -10.390625 C 2.921875 -10.015625 3.3125 -9.566406 3.59375 -9.046875 C 3.882812 -8.535156 4.070312 -7.992188 4.15625 -7.421875 C 4.238281 -6.847656 4.203125 -6.257812 4.046875 -5.65625 C 3.890625 -5.0625 3.613281 -4.5 3.21875 -3.96875 Z M 1.515625 -5.296875 C 1.703125 -5.554688 1.820312 -5.828125 1.875 -6.109375 C 1.9375 -6.398438 1.941406 -6.6875 1.890625 -6.96875 C 1.835938 -7.25 1.734375 -7.515625 1.578125 -7.765625 C 1.421875 -8.015625 1.21875 -8.234375 0.96875 -8.421875 L 0.9375 -8.4375 C 0.6875 -8.625 0.414062 -8.757812 0.125 -8.84375 C -0.15625 -8.925781 -0.4375 -8.953125 -0.71875 -8.921875 C -1 -8.890625 -1.269531 -8.804688 -1.53125 -8.671875 C -1.800781 -8.535156 -2.035156 -8.332031 -2.234375 -8.0625 C -2.441406 -7.800781 -2.570312 -7.523438 -2.625 -7.234375 C -2.6875 -6.941406 -2.691406 -6.65625 -2.640625 -6.375 C -2.597656 -6.101562 -2.492188 -5.84375 -2.328125 -5.59375 C -2.160156 -5.34375 -1.953125 -5.117188 -1.703125 -4.921875 C -1.453125 -4.734375 -1.179688 -4.59375 -0.890625 -4.5 C -0.597656 -4.414062 -0.304688 -4.390625 -0.015625 -4.421875 C 0.265625 -4.453125 0.539062 -4.535156 0.8125 -4.671875 C 1.082031 -4.816406 1.316406 -5.023438 1.515625 -5.296875 Z M 1.515625 -5.296875 "/></g></g></g><g fill="#17223a" fill-opacity="1"><g transform="translate(51.079674, 92.007186)"><g/></g></g><g fill="#17223a" fill-opacity="1"><g transform="translate(53.862202, 88.858927)"><g><path d="M 0.5625 -0.515625 L -5.296875 -6.84375 L -0.21875 -11.5625 L 1.15625 -10.0625 L -2.1875 -6.953125 L -1.296875 -6 L 1.734375 -8.8125 L 3.015625 -7.421875 L -0.015625 -4.609375 L 0.921875 -3.609375 L 4.3125 -6.75 L 5.6875 -5.265625 Z M 0.5625 -0.515625 "/></g></g></g><g fill="#17223a" fill-opacity="1"><g transform="translate(60.386302, 82.824519)"><g><path d="M -0.203125 -10.53125 L 1.96875 -12.125 L 2.171875 -7.0625 L 7.15625 -5.234375 L 4.9375 -3.609375 L 2.078125 -4.75 L 2.265625 -1.65625 L 0.109375 -0.078125 L -0.09375 -5.375 L -4.875 -7.109375 L -2.671875 -8.71875 L -0.015625 -7.671875 Z M -0.203125 -10.53125 "/></g></g></g><g fill="#17223a" fill-opacity="1"><g transform="translate(68.23201, 77.164225)"><g><path d="M 2.5 -1.421875 L -0.71875 -7.109375 L -2.953125 -5.828125 L -3.984375 -7.640625 L 2.578125 -11.375 L 3.609375 -9.5625 L 1.34375 -8.28125 L 4.5625 -2.59375 Z M 2.5 -1.421875 "/></g></g></g><g fill="#17223a" fill-opacity="1"><g transform="translate(75.889612, 72.840593)"><g><path d="M 0.703125 -0.296875 L -2.65625 -8.234375 L 1.09375 -9.828125 C 1.695312 -10.085938 2.242188 -10.226562 2.734375 -10.25 C 3.222656 -10.28125 3.65625 -10.21875 4.03125 -10.0625 C 4.363281 -9.9375 4.648438 -9.742188 4.890625 -9.484375 C 5.140625 -9.222656 5.347656 -8.898438 5.515625 -8.515625 L 5.53125 -8.484375 C 5.78125 -7.878906 5.84375 -7.3125 5.71875 -6.78125 C 5.59375 -6.25 5.332031 -5.773438 4.9375 -5.359375 L 8 -3.390625 L 5.484375 -2.328125 L 2.859375 -4.046875 L 1.890625 -3.640625 L 2.90625 -1.234375 Z M 1.15625 -5.359375 L 2.609375 -5.96875 C 2.984375 -6.125 3.234375 -6.328125 3.359375 -6.578125 C 3.492188 -6.835938 3.503906 -7.113281 3.390625 -7.40625 L 3.375 -7.4375 C 3.238281 -7.75 3.03125 -7.941406 2.75 -8.015625 C 2.46875 -8.085938 2.148438 -8.046875 1.796875 -7.890625 L 0.34375 -7.28125 Z M 1.15625 -5.359375 "/></g></g></g><g fill="#17223a" fill-opacity="1"><g transform="translate(84.626742, 69.149342)"><g><path d="M 0.09375 -0.03125 L 1.234375 -9.375 L 3.4375 -10 L 9.34375 -2.65625 L 6.890625 -1.953125 L 5.859375 -3.265625 L 2.65625 -2.359375 L 2.484375 -0.703125 Z M 2.84375 -4.34375 L 4.703125 -4.875 L 3.09375 -6.953125 Z M 2.84375 -4.34375 "/></g></g></g><g fill="#17223a" fill-opacity="1"><g transform="translate(94.629442, 66.3403)"><g><path d="M 5.09375 -0.5625 C 4.425781 -0.457031 3.789062 -0.484375 3.1875 -0.640625 C 2.59375 -0.796875 2.066406 -1.039062 1.609375 -1.375 C 1.148438 -1.707031 0.765625 -2.125 0.453125 -2.625 C 0.148438 -3.132812 -0.0390625 -3.691406 -0.125 -4.296875 L -0.125 -4.328125 C -0.21875 -4.941406 -0.1875 -5.535156 -0.03125 -6.109375 C 0.113281 -6.691406 0.359375 -7.210938 0.703125 -7.671875 C 1.054688 -8.128906 1.5 -8.515625 2.03125 -8.828125 C 2.570312 -9.140625 3.175781 -9.34375 3.84375 -9.4375 C 4.488281 -9.53125 5.109375 -9.5 5.703125 -9.34375 C 6.296875 -9.195312 6.820312 -8.953125 7.28125 -8.609375 C 7.75 -8.273438 8.140625 -7.851562 8.453125 -7.34375 C 8.765625 -6.84375 8.96875 -6.285156 9.0625 -5.671875 L 9.0625 -5.65625 C 9.144531 -5.050781 9.101562 -4.457031 8.9375 -3.875 C 8.78125 -3.300781 8.523438 -2.785156 8.171875 -2.328125 C 7.828125 -1.867188 7.390625 -1.484375 6.859375 -1.171875 C 6.335938 -0.859375 5.75 -0.65625 5.09375 -0.5625 Z M 4.8125 -2.703125 C 5.125 -2.742188 5.398438 -2.84375 5.640625 -3 C 5.890625 -3.164062 6.09375 -3.363281 6.25 -3.59375 C 6.414062 -3.832031 6.53125 -4.097656 6.59375 -4.390625 C 6.65625 -4.679688 6.664062 -4.976562 6.625 -5.28125 L 6.625 -5.3125 C 6.570312 -5.625 6.472656 -5.910156 6.328125 -6.171875 C 6.191406 -6.429688 6.015625 -6.648438 5.796875 -6.828125 C 5.578125 -7.015625 5.320312 -7.148438 5.03125 -7.234375 C 4.738281 -7.328125 4.429688 -7.351562 4.109375 -7.3125 C 3.773438 -7.257812 3.484375 -7.148438 3.234375 -6.984375 C 2.992188 -6.828125 2.796875 -6.628906 2.640625 -6.390625 C 2.484375 -6.148438 2.367188 -5.882812 2.296875 -5.59375 C 2.234375 -5.3125 2.226562 -5.015625 2.28125 -4.703125 L 2.28125 -4.6875 C 2.320312 -4.375 2.414062 -4.082031 2.5625 -3.8125 C 2.707031 -3.539062 2.890625 -3.316406 3.109375 -3.140625 C 3.328125 -2.960938 3.582031 -2.832031 3.875 -2.75 C 4.164062 -2.664062 4.476562 -2.648438 4.8125 -2.703125 Z M 4.8125 -2.703125 "/></g></g></g><g fill="#17223a" fill-opacity="1"><g transform="translate(105.379992, 64.876866)"><g><path d="M 0.765625 -0.015625 L 0.640625 -8.640625 L 4.71875 -8.703125 C 5.375 -8.710938 5.929688 -8.632812 6.390625 -8.46875 C 6.859375 -8.3125 7.234375 -8.09375 7.515625 -7.8125 C 7.785156 -7.5625 7.984375 -7.269531 8.109375 -6.9375 C 8.242188 -6.601562 8.3125 -6.226562 8.3125 -5.8125 L 8.3125 -5.78125 C 8.320312 -5.125 8.171875 -4.570312 7.859375 -4.125 C 7.546875 -3.675781 7.125 -3.335938 6.59375 -3.109375 L 8.6875 -0.140625 L 5.953125 -0.09375 L 4.15625 -2.671875 L 3.109375 -2.65625 L 3.15625 -0.046875 Z M 3.09375 -4.53125 L 4.671875 -4.5625 C 5.078125 -4.5625 5.390625 -4.65625 5.609375 -4.84375 C 5.828125 -5.03125 5.9375 -5.28125 5.9375 -5.59375 L 5.9375 -5.625 C 5.925781 -5.96875 5.800781 -6.222656 5.5625 -6.390625 C 5.332031 -6.554688 5.023438 -6.640625 4.640625 -6.640625 L 3.0625 -6.609375 Z M 3.09375 -4.53125 "/></g></g></g><g fill="#17223a" fill-opacity="1"><g transform="translate(114.871132, 64.752018)"><g><path d="M 0.765625 0.078125 L 1.6875 -8.5 L 4.984375 -8.140625 C 5.753906 -8.054688 6.425781 -7.875 7 -7.59375 C 7.582031 -7.320312 8.054688 -6.972656 8.421875 -6.546875 C 8.796875 -6.128906 9.0625 -5.648438 9.21875 -5.109375 C 9.382812 -4.566406 9.4375 -3.988281 9.375 -3.375 L 9.375 -3.34375 C 9.300781 -2.738281 9.125 -2.179688 8.84375 -1.671875 C 8.5625 -1.160156 8.191406 -0.738281 7.734375 -0.40625 C 7.273438 -0.0703125 6.734375 0.171875 6.109375 0.328125 C 5.484375 0.484375 4.789062 0.519531 4.03125 0.4375 Z M 4.796875 -6.046875 L 3.84375 -6.140625 L 3.375 -1.765625 L 4.328125 -1.671875 C 5.046875 -1.585938 5.640625 -1.710938 6.109375 -2.046875 C 6.585938 -2.378906 6.863281 -2.882812 6.9375 -3.5625 L 6.953125 -3.59375 C 7.023438 -4.28125 6.863281 -4.835938 6.46875 -5.265625 C 6.070312 -5.703125 5.515625 -5.960938 4.796875 -6.046875 Z M 4.796875 -6.046875 "/></g></g></g><g fill="#17223a" fill-opacity="1"><g transform="translate(124.965171, 66.000467)"><g><path d="M 0.8125 0.171875 L 2.53125 -8.28125 L 4.875 -7.8125 L 3.15625 0.640625 Z M 0.8125 0.171875 "/></g></g></g><g fill="#17223a" fill-opacity="1"><g transform="translate(129.662558, 66.862276)"><g><path d="M 0.734375 0.21875 L 3.25 -8.03125 L 5.375 -7.375 L 7.4375 -1.984375 L 8.765625 -6.34375 L 11.03125 -5.65625 L 8.515625 2.59375 L 6.53125 2 L 4.359375 -3.625 L 2.984375 0.90625 Z M 0.734375 0.21875 "/></g></g></g><g fill="#17223a" fill-opacity="1"><g transform="translate(139.481757, 69.895469)"><g><path d="M 0.078125 0.03125 L 7.015625 -6.359375 L 9.09375 -5.40625 L 8.84375 4.015625 L 6.515625 2.953125 L 6.59375 1.296875 L 3.5625 -0.078125 L 2.34375 1.0625 Z M 4.96875 -1.5 L 6.734375 -0.6875 L 6.859375 -3.3125 Z M 4.96875 -1.5 "/></g></g></g><g fill="#17223a" fill-opacity="1"><g transform="translate(148.938624, 74.259492)"><g><path d="M 0.65625 0.40625 L 5.171875 -6.9375 L 8.640625 -4.8125 C 9.203125 -4.46875 9.632812 -4.101562 9.9375 -3.71875 C 10.25 -3.332031 10.453125 -2.941406 10.546875 -2.546875 C 10.628906 -2.203125 10.632812 -1.851562 10.5625 -1.5 C 10.488281 -1.144531 10.347656 -0.789062 10.140625 -0.4375 L 10.125 -0.40625 C 9.78125 0.144531 9.351562 0.523438 8.84375 0.734375 C 8.34375 0.941406 7.804688 1 7.234375 0.90625 L 7.40625 4.546875 L 5.078125 3.109375 L 4.9375 -0.015625 L 4.046875 -0.5625 L 2.6875 1.65625 Z M 5.03125 -2.171875 L 6.375 -1.34375 C 6.71875 -1.132812 7.035156 -1.046875 7.328125 -1.078125 C 7.617188 -1.109375 7.84375 -1.257812 8 -1.53125 L 8.015625 -1.5625 C 8.203125 -1.851562 8.238281 -2.132812 8.125 -2.40625 C 8.019531 -2.675781 7.800781 -2.910156 7.46875 -3.109375 L 6.125 -3.9375 Z M 5.03125 -2.171875 "/></g></g></g><g fill="#17223a" fill-opacity="1"><g transform="translate(157.015646, 79.265899)"><g><path d="M 2.5625 2.03125 L 4.5625 -0.484375 L 5.328125 -6.765625 L 7.484375 -5.078125 L 6.90625 -1.515625 L 10.25 -2.859375 L 12.34375 -1.203125 L 6.46875 0.953125 L 4.4375 3.515625 Z M 2.5625 2.03125 "/></g></g></g></svg>